<?xml version="1.0" standalone="no"?>
<!DOCTYPE svg PUBLIC "-//W3C//DTD SVG 1.1//EN" "http://www.w3.org/Graphics/SVG/1.1/DTD/svg11.dtd" >
<svg xmlns="http://www.w3.org/2000/svg">
<metadata>
Created by Font 20130207 at Tue May  7 19:54:03 2013
 By Christian Philippsen
[c] Copyright 1995, The Font Bureau, Inc. Designed by Matthew Butterick. All rights reserved.
</metadata>
<defs>
<font id="bxocimmyrq" >
  <font-face 
    font-family="name"
    font-weight="400"
    font-stretch="normal"
    units-per-em="1000"
    panose-1="2 0 6 6 6 0 0 2 0 4"
    ascent="775"
    descent="-225"
    x-height="538"
    cap-height="732"
    bbox="-54.25 -214 1056 1004"
    underline-thickness="25"
    underline-position="-109"
    unicode-range="U+0020-FB04"
  />
<missing-glyph horiz-adv-x="500" 
 />
    <glyph glyph-name="f_f" unicode="ff" horiz-adv-x="638" 
d="M63 446q-22 0 -22 21v34q0 21 16 21h50q-19 40 -19 93t32 91t92 37q60 0 95 -13q7 -3 1 -40t-14 -36q-28 7 -48 7t-34 -16t-15 -53q0 -37 28 -69h178q-19 41 -19 93t32 90t92 37q60 0 95 -13q7 -3 1 -40t-14 -36q-28 7 -48 7t-34 -16t-15 -53q0 -37 28 -69h67
q15 -1 19 -5t4 -15v-35q0 -22 -23 -22h-65v-413q0 -33 -23 -33h-61q-28 0 -28 26v420h-184v-413q0 -33 -23 -33h-61q-28 0 -28 26v420h-52z" />
    <glyph glyph-name="fi" unicode="fi" horiz-adv-x="587" 
d="M501 732q20 0 20 -22v-46q1 -18 -3 -24t-17 -6h-66q-15 0 -19 6t-5 27v36q0 17 5 23t22 6h63zM521 35q0 -25 -5 -30t-15 -5h-70q-13 0 -17 7t-3 28v426h-184v-428q0 -33 -23 -33h-61q-28 0 -28 26v435h-52q-13 0 -17 4t-5 16v35q0 22 16 22h48q-17 34 -17 84t32 86
q32 35 92 35t95 -13q7 -3 1 -40t-14 -36q-29 7 -47 7q-50 0 -50 -55q0 -36 28 -68h272q17 0 21 -6t3 -24v-473z" />
    <glyph glyph-name="f_f_i" unicode="ffi" horiz-adv-x="882" 
d="M796 732q20 0 20 -22v-46q0 -18 -4 -24t-16 -6h-66q-16 0 -20 6t-4 27v36q0 17 5 23t22 6h63zM197 606q0 -38 28 -68h176q-17 34 -17 84t32 86q32 35 92 35t95 -13q7 -3 1 -40t-14 -36q-29 7 -47 7q-50 0 -50 -55q0 -36 28 -68h271q16 0 20 -6t4 -24v-473q0 -25 -5 -30
t-15 -5h-70q-12 0 -16 7t-4 28v426h-183v-428q0 -33 -23 -33h-61q-28 0 -28 26v435h-184v-428q0 -33 -23 -33h-61q-28 0 -28 26v435h-52q-13 0 -17 4t-5 16v35q0 22 16 22h48q-17 34 -17 84t32 86q32 35 92 35t95 -13q7 -3 1 -40t-14 -36q-29 7 -47 7q-50 0 -50 -55z" />
    <glyph glyph-name=".notdef" horiz-adv-x="500" 
 />
    <glyph glyph-name=".notdef" horiz-adv-x="500" 
 />
    <glyph glyph-name=".null" horiz-adv-x="0" 
 />
    <glyph glyph-name="nonmarkingreturn" horiz-adv-x="333" 
 />
    <glyph glyph-name="space" unicode=" " horiz-adv-x="227" 
 />
    <glyph glyph-name="exclam" unicode="!" horiz-adv-x="275" 
d="M208 31q0 -15 -5 -23t-21 -8h-79q-24 0 -26 9t-2 19v56q0 25 22 25h82q19 0 24 -4t5 -19v-55zM166 215h-40q-18 -1 -22 5t-5 28l-13 448q0 24 6 30t19 6h60q16 0 21 -8t4 -26l-13 -451q0 -32 -17 -32z" />
    <glyph glyph-name="quotedbl" unicode="&#x22;" horiz-adv-x="378" 
d="M124 447h-26q-19 0 -21 33l-17 220q-4 32 18 32h62q16 0 20 -8t3 -27l-16 -224q-2 -26 -23 -26zM292 447h-25q-22 0 -24 28l-16 223q-4 34 21 34h62q14 0 18 -7t2 -26l-17 -221q-1 -31 -21 -31z" />
    <glyph glyph-name="numbersign" unicode="#" horiz-adv-x="636" 
d="M402 441h-132l-31 -138h131zM536 303q18 1 22 -3t2 -16l-4 -24q-4 -17 -12 -23t-26 -6h-69l-46 -201q-3 -18 -9 -24t-20 -6h-48q-23 0 -14 33l45 198h-132l-46 -203q-4 -18 -9 -23t-17 -5h-44q-17 0 -21 6t0 26l45 199h-76q-17 0 -21 5t-1 23l4 26q3 12 9 15t25 3h73
l32 138h-77q-15 0 -20 5t-2 21l6 26q3 14 9 17t24 3h73l43 190q4 17 10 23t24 6h46q12 0 14 -6t-21 -110q-23 -103 -24 -103h132l43 192q3 15 9 21t22 6h41q16 0 20 -6t0 -24l-42 -189h71q21 0 25 -4t1 -18l-5 -28q-5 -22 -37 -22h-69l-32 -138h74z" />
    <glyph glyph-name="dollar" unicode="$" horiz-adv-x="601" 
d="M341 652q-144 0 -144 -98q0 -42 31 -68q32 -26 122 -63q194 -77 194 -227q0 -87 -50 -136t-135 -64v-71q1 -17 -3 -23t-17 -5h-71q-16 0 -22 7t-6 26v57q-134 4 -186 41q-13 18 -1 58t17 38t27 -9q22 -8 54 -18t100 -10q165 0 165 103q0 48 -30 78t-94 55
q-106 42 -162 89q-57 48 -57 130q0 172 190 195v74q1 17 7 23t24 6h71q16 0 17 -8t1 -23v-67q70 -3 122 -21q17 -5 5 -49t-28 -42q-79 22 -141 22z" />
    <glyph glyph-name="percent" unicode="%" horiz-adv-x="754" 
d="M246 491v99q0 76 -56 76q-37 0 -51 -20t-14 -60v-93q1 -27 17 -43t45 -17t44 17t15 41zM641 120v99q0 75 -57 75q-65 0 -65 -79v-93q1 -26 17 -43t46 -17t44 18q15 18 15 40zM324 485q0 -125 -141 -125q-62 0 -101 32t-39 93v117q0 68 39 104t101 36q141 0 141 -134v-123
zM223 0h-43q-17 0 -20 6t6 26l349 679q12 21 19 25q8 3 20 3h46q9 0 13 -4t-7 -26l-350 -681q-9 -18 -15 -23t-18 -5zM719 114q0 -125 -141 -125q-62 -1 -101 31t-39 93v117q0 69 39 105t101 36q141 0 141 -134v-123z" />
    <glyph glyph-name="ampersand" unicode="&#x26;" horiz-adv-x="554" 
d="M365 -76q0 -16 -4 -22t-16 -6h-71q-17 0 -23 7t-6 26v63q-86 11 -132 59t-46 122q1 74 39 123t102 67q-65 17 -103 63t-38 123q1 76 49 126t124 62v73q0 17 5 23t23 6h73q13 1 15 -5t3 -25v-69q69 -8 120 -40q8 -8 7 -29t-11 -41t-19 -17q-74 37 -138 37t-102 -32
t-38 -84q0 -54 41 -86t89 -36q48 -2 52 -8q3 -6 3 -12v-49q0 -16 -9 -18t-20 -3q-70 -3 -112 -37t-43 -89q0 -113 143 -113q88 0 150 41q7 4 18 -18q28 -54 10 -73q-46 -35 -135 -42v-67z" />
    <glyph glyph-name="quotesingle" unicode="'" horiz-adv-x="224" 
d="M130 447h-25q-20 0 -22 33l-17 220q-2 20 2 26t16 6h62q16 0 20 -8t4 -27l-17 -224q-2 -26 -23 -26z" />
    <glyph glyph-name="parenleft" unicode="(" horiz-adv-x="363" 
d="M176 330q0 -112 38 -226t80 -165q6 -8 -14 -22q-20 -13 -44 -19q-23 -6 -33 0q-46 50 -88 170t-42 258t45 256q45 119 103 179q7 7 31 -2t42 -25t8 -24q-44 -40 -85 -154t-41 -226z" />
    <glyph glyph-name="parenright" unicode=")" horiz-adv-x="363" 
d="M281 327q0 -138 -43 -257t-93 -174q-7 -7 -31 1t-44 23q-19 15 -11 24q41 46 80 158t39 224t-40 227t-86 162q-8 9 11 23t44 22t32 -1q54 -54 98 -174t44 -258z" />
    <glyph glyph-name="asterisk" unicode="*" horiz-adv-x="402" 
d="M227 737q23 0 19 -29l-9 -105l99 42q23 11 28 -5l15 -46q7 -20 -22 -26l-102 -25l70 -79q17 -20 3 -29l-38 -29q-12 -6 -18 -4t-14 17l-54 90l-55 -91q-14 -23 -26 -13l-39 28q-15 14 2 34l69 80l-104 24q-27 5 -20 21l14 45q7 22 34 9l96 -41l-9 106q-2 26 14 26h47z
" />
    <glyph glyph-name="plus" unicode="+" horiz-adv-x="526" 
d="M214 454q0 29 24 29h46q16 1 20 -5t4 -25v-164h161q26 0 31 -5q4 -5 4 -14v-49q0 -15 -8 -19t-29 -3h-159v-164q0 -25 -6 -30t-14 -5h-48q-16 0 -21 8t-5 29v162h-168q-15 0 -20 4t-5 16v46q-1 17 5 21t25 3h163v165z" />
    <glyph glyph-name="comma" unicode="," horiz-adv-x="245" 
d="M95 113h76q27 0 22 -22q-25 -118 -127 -187q-13 -9 -26 0t-8 20q39 85 44 165q2 24 19 24z" />
    <glyph glyph-name="hyphen" unicode="-" horiz-adv-x="513" 
d="M435 282q0 -16 -7 -20t-30 -5h-290q-28 0 -28 21v49q0 17 6 20t25 3h287q27 0 32 -5t5 -14v-49z" />
    <glyph glyph-name="period" unicode="." horiz-adv-x="245" 
d="M57 86q0 27 20 27h82q19 0 25 -5t6 -18v-54q0 -36 -24 -36h-77q-32 0 -32 32v54z" />
    <glyph glyph-name="slash" unicode="/" horiz-adv-x="410" 
d="M102 0h-64q-16 0 -20 6t5 26l261 679q6 17 13 23t25 5h66q15 1 13 -11q-1 -6 -6 -19l-262 -681q-7 -18 -13 -23t-18 -5z" />
    <glyph glyph-name="zero" unicode="0" horiz-adv-x="645" 
d="M192 215q0 -131 136 -131q66 0 97 32t31 117v248q0 87 -28 125t-104 38t-104 -38t-28 -131v-260zM574 231q0 -169 -106 -219q-53 -24 -138 -25q-259 0 -259 222v286q-1 138 67 193t192 55q176 0 224 -118q20 -48 20 -118v-276z" />
    <glyph glyph-name="one" unicode="1" horiz-adv-x="393" 
d="M264 732q20 0 20 -18v-684q0 -18 -4 -24t-17 -6h-77q-23 0 -23 34v549q1 13 -3 17t-16 4h-72q-14 0 -22 19v43q0 12 7 18t27 12l65 26q36 10 45 10h70z" />
    <glyph glyph-name="two" unicode="2" horiz-adv-x="601" 
d="M501 100q31 0 31 -18v-65q0 -17 -17 -17h-436q-20 0 -20 24v48q0 108 58 186q57 78 135 125q78 46 121 84t43 78q0 103 -133 103q-44 0 -68 -8q-25 -8 -33 -12q-8 -2 -18 -8l-16 -8t-14 -9q-10 -6 -12 -7q-8 -5 -20 18q-12 22 -14 46q-3 24 4 32q95 51 207 51
q233 0 233 -182q0 -87 -64 -145t-150 -108q-124 -75 -129 -186q0 -22 29 -22h283z" />
    <glyph glyph-name="three" unicode="3" horiz-adv-x="553" 
d="M492 186q0 -96 -66 -148t-146 -52q-149 0 -230 48q-14 6 0 50t26 42q90 -42 160 -42t108 30q37 30 37 86q-1 54 -45 88t-89 36t-47 8t-3 12v44q1 16 11 18t21 3q150 11 150 133q0 48 -38 78t-111 30t-135 -46q-8 -4 -17 16q-23 52 -9 72q64 51 180 51q115 0 179 -49
q64 -50 64 -130t-40 -132t-101 -65q141 -43 141 -181z" />
    <glyph glyph-name="four" unicode="4" horiz-adv-x="600" 
d="M368 233v336l-214 -336h214zM515 233q15 0 15 -18v-47q0 -25 -17 -25h-41v-126q0 -17 -20 -17h-58q-14 0 -20 4t-6 16v123h-304q-21 0 -21 16v47q0 21 10 38l292 455q19 33 35 33h75q17 0 17 -14v-485h43z" />
    <glyph glyph-name="five" unicode="5" horiz-adv-x="578" 
d="M499 650q0 -18 -32 -18h-236q-16 0 -22 -4t-6 -18v-118q0 -14 23 -18q287 -41 287 -262q0 -96 -67 -160q-66 -64 -188 -64t-196 51q-5 8 -3 31q1 24 13 46t23 16q90 -45 159 -45q70 0 104 36t34 90q0 152 -259 176q-38 4 -38 46v273q0 24 21 24h365q18 0 18 -17v-65z" />
    <glyph glyph-name="six" unicode="6" horiz-adv-x="613" 
d="M442 245q0 150 -107 150q-79 0 -129 -43q-14 -13 -14 -26v-112q0 -128 130 -128q60 0 90 36t30 123zM563 244q0 -258 -231 -257q-119 0 -190 51t-71 152v302q0 133 63 192t201 59q33 0 87 -10t68 -16q12 -5 14 -17q3 -20 -8 -56q-10 -35 -21 -31q-93 31 -140 31
q-93 0 -118 -41t-25 -110v-29q0 -24 14 -13q62 42 148 42q86 1 147 -61q62 -62 62 -188z" />
    <glyph glyph-name="seven" unicode="7" horiz-adv-x="562" 
d="M255 0h-77q-16 0 -22 4t0 20l195 583q6 23 -23 23h-281q-19 0 -19 21v57q0 14 4 19t17 5h422q41 0 30 -35l-222 -671q-8 -26 -24 -26z" />
    <glyph glyph-name="eight" unicode="8" horiz-adv-x="624" 
d="M448 198q0 56 -36 92t-102 37q-66 -1 -98 -37t-33 -92q0 -56 37 -84q37 -30 100 -30q64 0 98 30q34 28 34 84zM439 525q-1 56 -35 89t-92 33q-58 1 -92 -33q-32 -34 -32 -90t34 -84q34 -29 90 -29t92 29q35 29 35 85zM567 166q1 -78 -69 -129q-70 -50 -188 -50t-184 51
q-64 51 -64 130q0 80 34 130t73 65q-37 19 -67 65t-29 103q0 91 64 151t177 61q113 0 177 -59t64 -136q1 -76 -35 -124t-76 -61q123 -43 123 -197z" />
    <glyph glyph-name="nine" unicode="9" horiz-adv-x="613" 
d="M422 404v112q0 128 -130 128q-60 0 -90 -36t-30 -123q0 -150 107 -150q79 0 129 43q14 13 14 26zM51 486q0 258 231 257q119 0 190 -51t71 -152v-302q0 -133 -63 -192t-201 -59q-35 1 -104 11t-81 16t-14 16q-3 20 8 56q10 35 21 31q157 -53 247 -21q66 24 66 141v29
q0 24 -14 13q-62 -42 -148 -42q-86 -1 -147 61q-62 62 -62 188z" />
    <glyph glyph-name="colon" unicode=":" horiz-adv-x="245" 
d="M56 86q0 27 20 27h83q20 0 25 -5t5 -18v-54q0 -36 -24 -36h-76q-33 0 -33 32v54zM59 504q0 34 24 34h76q29 0 29 -29v-51q0 -30 -25 -30h-75q-29 0 -29 21v55z" />
    <glyph glyph-name="semicolon" unicode=";" horiz-adv-x="245" 
d="M89 113h76q27 0 22 -22q-25 -118 -127 -187q-13 -9 -26 0t-8 20q39 85 44 165q2 24 19 24zM90 425q-32 0 -32 27v55q0 31 22 31h84q17 0 22 -7t5 -21v-53q0 -32 -22 -32h-79z" />
    <glyph glyph-name="less" unicode="&#x3c;" horiz-adv-x="526" 
d="M456 85q0 -14 -8 -15t-27 7l-312 118q-19 7 -27 13t-7 16v52q-1 14 5 20t25 14l316 120q19 8 27 7t8 -15v-49q0 -15 -8 -21t-29 -13l-242 -86l242 -85q21 -8 29 -14t8 -20v-49z" />
    <glyph glyph-name="equal" unicode="=" horiz-adv-x="526" 
d="M92 127q-31 0 -31 17v39q1 16 7 20t26 4h349q17 1 23 -3t6 -20v-35q0 -19 -10 -20q-10 -2 -24 -2h-346zM443 366q31 0 31 -17v-39q0 -16 -6 -20t-27 -4h-349q-18 0 -24 4t-5 19v36q1 15 7 18t27 3h346z" />
    <glyph glyph-name="greater" unicode="&#x3e;" horiz-adv-x="526" 
d="M464 224q0 -10 -7 -16t-26 -13l-313 -118q-19 -8 -27 -7t-8 15v49q-1 14 7 20t30 14l243 85l-243 86q-22 7 -30 13t-7 21v49q0 14 8 15t27 -7l316 -120q21 -8 26 -16q4 -7 4 -18v-52z" />
    <glyph glyph-name="question" unicode="?" horiz-adv-x="444" 
d="M266 36q0 -36 -24 -36h-77q-33 0 -33 32v50q0 27 21 27h85q28 0 28 -22v-51zM166 220q-24 0 -24 36t6 63t23 51t37 45t50 57q32 36 32 84q0 100 -95 100q-59 0 -115 -45q-7 -5 -26 26t-1 54q73 52 159 52t137 -44q52 -45 52 -105q0 -104 -74 -177q-74 -74 -74 -119v-53
q0 -25 -22 -25h-65z" />
    <glyph glyph-name="at" unicode="@" horiz-adv-x="795" 
d="M314 301q0 -119 78 -119q34 0 58 28t24 50v128q0 34 -21 66t-63 33q-76 0 -76 -123v-63zM222 328q0 222 146 222q76 0 111 -64v35q0 19 14 19h49q14 0 18 -5t4 -18v-274q0 -25 15 -45t42 -19q74 -1 74 147q1 148 -81 237t-212 89t-210 -90q-79 -90 -79 -233
q-1 -143 79 -229t211 -86q56 0 112 14t85 31q8 4 22 -19t-3 -37q-96 -47 -217 -47q-168 0 -264 104t-96 268t102 272q102 110 259 110q156 0 256 -104t100 -273q0 -210 -166 -210q-81 0 -106 67q-39 -71 -137 -71q-52 0 -90 52t-38 157z" />
    <glyph glyph-name="A" unicode="A" horiz-adv-x="639" 
d="M408 255l-97 334l-98 -334h195zM581 0h-79q-13 0 -16 4t-8 22l-43 140h-249l-42 -140q-5 -16 -9 -21t-16 -5h-72q-9 0 -11 5t4 28l203 667q6 18 13 25t24 7h82q26 0 37 -32l203 -667q4 -25 0 -29t-21 -4z" />
    <glyph glyph-name="B" unicode="B" horiz-adv-x="630" 
d="M217 325q-20 0 -20 -19v-203q0 -18 18 -18h79q83 -1 122 25t39 90q0 125 -157 125h-81zM195 437q0 -19 20 -19h81q78 0 112 28t35 88q0 62 -37 88t-114 26h-79q-18 -1 -18 -18v-193zM574 192q0 -192 -249 -192h-224q-13 0 -17 6t-4 20v671q0 25 5 30t15 5h195
q133 0 200 -44t67 -141q0 -67 -32 -112t-83 -63q127 -40 127 -180z" />
    <glyph glyph-name="C" unicode="C" horiz-adv-x="600" 
d="M196 480v-260q0 -74 48 -108t94 -34q47 0 70 2t41 8q17 5 29 9t26 10q14 5 18 7q5 2 17 -34t4 -56q-61 -37 -192 -37q-133 0 -205 59t-72 163v281q0 186 152 234q60 20 165 19q105 0 157 -42q7 -6 -9 -45t-24 -37q-2 1 -13 5t-16 8q-35 18 -119 17q-171 0 -171 -169z" />
    <glyph glyph-name="D" unicode="D" horiz-adv-x="664" 
d="M199 119q0 -23 26 -23h81q91 0 127 37t36 109v246q0 149 -164 149h-83q-15 -1 -19 -5t-4 -16v-497zM590 228q0 -228 -253 -228h-232q-25 0 -25 35v664q0 33 21 33h203q207 0 263 -118q23 -48 23 -118v-268z" />
    <glyph glyph-name="E" unicode="E" horiz-adv-x="551" 
d="M467 95q37 0 37 -19v-58q0 -18 -21 -18h-380q-23 0 -23 29v670q0 33 19 33h362q19 0 23 -2t4 -14v-59q0 -12 -14 -14t-32 -2h-222q-26 0 -26 -16v-173q0 -23 22 -23h198q20 0 26 -4t4 -14l-7 -56q1 -3 -1 -5t-3 -5q-1 -1 -4 -3t-5 -3t-4 -1q-4 0 -6 -2h-50h-140
q-28 0 -28 -23v-196q0 -19 14 -21q4 0 15 -1h242z" />
    <glyph glyph-name="F" unicode="F" horiz-adv-x="514" 
d="M449 732q27 0 27 -16v-55q0 -13 -8 -17t-26 -4h-221q-26 0 -26 -16v-196q0 -23 22 -23h192q20 0 26 -4t4 -14l-4 -57q-3 -8 -5 -10l-4 -4t-6 -2q-4 -2 -6 -2h-50h-104q-54 0 -58 -6t-5 -18v-270q0 -18 -16 -18h-80q-21 0 -21 29v670q0 33 19 33h350z" />
    <glyph glyph-name="G" unicode="G" horiz-adv-x="675" 
d="M604 221q0 -131 -63 -182q-63 -52 -202 -52t-202 66t-63 181v229q0 163 77 221q77 59 224 59t203 -56q6 -5 -2 -27t-20 -40t-19 -14q-60 43 -158 43q-97 0 -139 -41t-42 -149v-214q0 -91 36 -131t112 -39q78 -1 110 27t32 100v94q0 21 -19 21l-68 1q-12 0 -16 3t-4 14v50
q0 18 14 18h164q29 1 37 -7t8 -34v-141z" />
    <glyph glyph-name="H" unicode="H" horiz-adv-x="697" 
d="M496 705q0 27 28 27h70q16 0 20 -5t3 -20v-675q1 -20 -3 -26t-19 -6h-75q-24 0 -24 29v285q0 12 -4 16t-15 4h-260q-10 0 -13 -3t-3 -14v-285q0 -20 -6 -26t-24 -6h-70q-21 0 -21 37v669q0 14 4 20t18 6h72q16 0 22 -6t5 -27v-251q0 -19 23 -19h255q17 0 17 17v259z" />
    <glyph glyph-name="I" unicode="I" horiz-adv-x="281" 
d="M201 23q0 -13 -4 -18t-17 -5h-77q-15 0 -19 6t-4 22v682q0 14 5 18t22 4h74q13 0 17 -6t3 -22v-681z" />
    <glyph glyph-name="J" unicode="J" horiz-adv-x="348" 
d="M268 162q0 -125 -85 -170q-38 -20 -114 -51q-18 -7 -25 12l-22 62q-8 24 25 39t59 31q26 15 33 41q8 26 8 80v500q-1 14 3 20t16 6h74q16 0 22 -6t6 -27v-537z" />
    <glyph glyph-name="K" unicode="K" horiz-adv-x="618" 
d="M578 0h-90q-14 0 -19 6t-13 17l-228 304l-27 -31v-270q1 -14 -3 -20t-17 -6h-74q-15 0 -21 6t-6 27v667q0 20 6 26t21 6h73q14 0 18 -5t3 -23v-269l241 279q17 18 31 18h79q22 0 26 -4t-7 -18l-265 -306l285 -380q17 -24 -13 -24z" />
    <glyph glyph-name="L" unicode="L" horiz-adv-x="512" 
d="M471 91q19 0 19 -10v-62q0 -13 -4 -16t-20 -3h-365q-13 0 -17 7t-4 28v671q0 14 4 20t18 6h72q16 0 22 -6t5 -27v-589q0 -19 23 -19h247z" />
    <glyph glyph-name="M" unicode="M" horiz-adv-x="799" 
d="M80 700q0 32 25 32h76q22 0 33 -19l180 -299q7 -11 14 -1l177 298q12 21 32 21h81q15 0 18 -6t3 -28v-671q-1 -15 -5 -21t-18 -6h-67q-19 0 -25 6t-7 27v509q0 14 -3 14t-11 -13l-149 -260q-15 -27 -26 -27h-22q-10 0 -14 4t-14 24l-141 254q-16 26 -16 -2v-510
q-1 -14 -5 -20t-19 -6h-65q-20 0 -26 9t-6 24v667z" />
    <glyph glyph-name="N" unicode="N" horiz-adv-x="719" 
d="M617 732q20 0 20 -33v-664q0 -22 -4 -30t-18 -7l-72 1q-22 0 -36 25l-291 488q-13 22 -17 22t-5 -23v-476q0 -21 -4 -28t-18 -7h-65q-27 0 -27 30v670q0 32 18 32h70q25 0 29 -4t8 -10t6 -7l292 -496q18 -33 21 1v484q0 14 4 24t12 8h77z" />
    <glyph glyph-name="O" unicode="O" horiz-adv-x="691" 
d="M496 242v246q0 157 -146 157q-86 1 -122 -39t-36 -122v-261q0 -69 46 -103t113 -34t106 33t39 123zM354 -13q-280 0 -280 210v295q0 133 66 192t205 59q272 0 272 -248v-267q0 -204 -179 -234q-42 -7 -84 -7z" />
    <glyph glyph-name="P" unicode="P" horiz-adv-x="634" 
d="M469 502q1 72 -43 106t-113 33h-93q-18 -1 -18 -18v-247q0 -12 4 -16t16 -3h121q57 1 91 37t35 108zM592 500q0 -116 -66 -177t-194 -61h-114q-10 0 -13 -4t-3 -16v-210q0 -20 -5 -26t-19 -6h-78q-14 0 -17 6t-3 16v684q0 14 4 20t20 6h214q274 0 274 -232z" />
    <glyph glyph-name="Q" unicode="Q" horiz-adv-x="691" 
d="M496 242v246q0 157 -146 157q-86 1 -122 -39t-36 -122v-261q0 -69 46 -103t113 -34t106 33t39 123zM343 -13q-31 -1 -63 3q-85 9 -145 56q-61 46 -61 151v295q0 133 66 192t205 59q272 0 272 -248v-267q0 -147 -96 -201q38 -52 101 -77q23 -8 14 -35l-20 -59
q-8 -20 -34 -11t-79 51q-54 42 -94 94q-35 -3 -66 -3z" />
    <glyph glyph-name="R" unicode="R" horiz-adv-x="660" 
d="M470 519q0 122 -157 122h-93q-18 -1 -18 -18v-204q0 -13 4 -16t16 -3h123q57 0 91 30t34 89zM592 534q0 -87 -42 -138t-92 -63q-12 -3 -12 -5t4 -10l138 -283q10 -19 8 -27t-17 -8h-89q-17 0 -21 9l-8 18l-128 268q-5 10 -17 10h-103q-7 -1 -9 -3t-2 -13v-257
q0 -20 -5 -26t-19 -6h-78q-14 0 -17 6t-3 16v684q0 14 4 20t20 6h214q134 0 204 -56t70 -142z" />
    <glyph glyph-name="S" unicode="S" horiz-adv-x="606" 
d="M342 649q-143 0 -143 -95q-1 -43 31 -70q32 -26 122 -62q194 -77 194 -233t-176 -193q-46 -10 -101 -10q-154 0 -213 41q-13 18 -1 59q12 40 17 38t21 -8q73 -30 160 -29q165 0 165 103q0 48 -30 78t-94 56q-105 42 -162 89q-57 48 -57 136t66 141q67 53 185 53t181 -22
q9 -7 8 -29t-11 -45t-21 -20q-71 22 -141 22z" />
    <glyph glyph-name="T" unicode="T" horiz-adv-x="554" 
d="M513 732q29 0 29 -14v-64q0 -15 -21 -15h-162q-15 1 -19 -3t-4 -16v-587q0 -21 -4 -27t-21 -6h-69q-18 0 -22 6t-4 27v587q0 12 -4 16t-19 3h-160q-21 0 -21 15v62q0 10 6 13t22 3h473z" />
    <glyph glyph-name="U" unicode="U" horiz-adv-x="668" 
d="M565 732q25 0 25 -33v-472q0 -240 -258 -240q-94 0 -174 49t-80 174v496q0 25 17 26h76q25 0 25 -33v-451q0 -76 38 -118t107 -43q69 1 99 41t30 122v456q0 25 17 26h78z" />
    <glyph glyph-name="V" unicode="V" horiz-adv-x="637" 
d="M271 0q-24 0 -31 24l-206 675q-7 21 -1 27t21 6h78q16 0 19 -6t7 -20l168 -563l168 563q7 24 12 25t10 1h63q15 0 21 -4t1 -17l-209 -689q-7 -22 -29 -22h-92z" />
    <glyph glyph-name="W" unicode="W" horiz-adv-x="943" 
d="M588 0q-24 0 -31 24l-86 281l-86 -283q-7 -22 -29 -22h-82q-24 0 -31 24l-206 675q-7 21 -1 27t21 6h78q16 0 19 -6t7 -20l168 -563l93 312l-74 244q-12 25 4 31q4 2 15 2h79q15 0 18 -6l175 -584l169 564q5 18 8 22t13 4h63q15 0 21 -4t2 -17l-210 -690q-6 -21 -29 -21
h-88z" />
    <glyph glyph-name="X" unicode="X" horiz-adv-x="680" 
d="M622 0h-89q-22 0 -43 32l-158 249l-160 -249q-14 -22 -20 -27t-17 -5h-71q-32 0 -15 25q9 11 15 21t24 38t34 54q28 43 76 116q47 73 63 96l9 14l-219 338q-18 30 10 30h85q26 0 47 -33l155 -241l154 241q13 21 21 27t26 6h62q29 0 9 -30l-211 -327l223 -343
q22 -32 -10 -32z" />
    <glyph glyph-name="Y" unicode="Y" horiz-adv-x="629" 
d="M274 0q-19 0 -19 20v282l-223 410q-8 14 -4 17t18 3h87q15 0 28 -21l165 -307l163 308q3 3 5 7q2 5 4 7t4 2t4 2t6 2h69q16 0 19 -5q4 -5 -8 -26q-107 -195 -184 -341l-32 -59v-279q0 -22 -23 -22h-79z" />
    <glyph glyph-name="Z" unicode="Z" horiz-adv-x="599" 
d="M82 732h446q23 0 23 -12v-30q0 -8 -21 -46l-329 -550h321q22 0 29 -3t7 -14v-58q0 -11 -5 -15t-22 -4h-471q-17 0 -17 12v30q0 8 18 42l332 554h-301q-22 0 -30 5t-8 19l3 52q0 18 25 18z" />
    <glyph glyph-name="bracketleft" unicode="[" horiz-adv-x="341" 
d="M185 4q0 -18 20 -18h74q19 0 19 -20v-49q0 -17 -23 -17h-173q-16 0 -22 5t-5 19v816q1 14 5 18t20 3h174q16 1 20 -3t4 -14v-49q0 -18 -24 -18h-69q-20 0 -20 -19v-654z" />
    <glyph glyph-name="backslash" unicode="\" horiz-adv-x="410" 
d="M374 0h-64q-12 0 -18 5t-13 23l-262 681q-9 22 -5 26t12 4h66q18 0 24 -5t14 -23l261 -679q9 -20 5 -26t-20 -6z" />
    <glyph glyph-name="bracketright" unicode="]" horiz-adv-x="341" 
d="M155 658q0 19 -20 19h-69q-24 0 -24 18v49q0 10 4 14t20 3h174q16 0 20 -4t5 -17v-816q1 -14 -5 -19t-22 -5h-173q-23 0 -23 17v49q0 20 19 20h74q20 0 20 18v654z" />
    <glyph glyph-name="asciicircum" unicode="^" horiz-adv-x="526" 
d="M453 353h-48q-14 0 -18 5q-3 4 -5 6t-4 6t-2 6l-3 6q-2 6 -3 8l-105 245l-105 -245q-4 -12 -6 -16q-7 -20 -28 -21h-48q-14 -1 -16 7t7 28l138 313q7 17 13 25t16 8h52q14 0 20 -6t14 -24l140 -316q9 -27 5 -31t-14 -4z" />
    <glyph glyph-name="underscore" unicode="_" horiz-adv-x="446" 
d="M37 -109q-27 0 -27 20v43q0 16 6 20t24 4h363q27 0 33 -6t5 -14v-42q-1 -16 -7 -20t-30 -5h-367z" />
    <glyph glyph-name="grave" unicode="`" horiz-adv-x="474" 
d="M328 597h-39q-16 0 -32 18l-124 129q-28 28 8 28h70q14 0 19 -6t12 -15l91 -128q19 -26 -5 -26z" />
    <glyph glyph-name="a" unicode="a" horiz-adv-x="569" 
d="M384 166v183q0 43 -28 85t-82 42q-105 0 -105 -166v-84q-1 -75 27 -118t76 -43t80 37t32 64zM503 39q-1 -23 -5 -31t-19 -8h-63q-12 0 -18 6t-6 23v42q-16 -34 -61 -58t-113 -24t-117 68q-50 67 -50 205t46 214t131 76q117 0 164 -83v44q0 25 18 25h64q20 0 24 -6t5 -24
v-469z" />
    <glyph glyph-name="b" unicode="b" horiz-adv-x="571" 
d="M402 226v84q0 76 -28 121t-79 45q-52 0 -80 -38t-28 -84v-198q1 -26 31 -58t79 -32t77 42t28 118zM520 262q0 -138 -48 -206t-127 -67q-115 0 -166 68v-29q1 -18 -5 -23t-19 -5h-63q-16 0 -20 8t-4 31v674q0 18 4 24t25 6h64q18 0 18 -33v-236q49 78 164 78q85 0 131 -76
t46 -214z" />
    <glyph glyph-name="c" unicode="c" horiz-adv-x="513" 
d="M301 -11q-127 0 -189 62t-62 215q0 286 251 286q128 0 183 -75q6 -9 -12 -27t-42 -29q-22 -11 -27 -2q-35 56 -98 56q-63 1 -98 -39t-35 -119v-98q0 -77 36 -115t96 -38t98 63q18 19 68 -14q20 -13 15 -22q-56 -104 -184 -104z" />
    <glyph glyph-name="d" unicode="d" horiz-adv-x="569" 
d="M384 156v198q0 46 -28 84t-80 38t-80 -45t-27 -121v-84q0 -76 28 -118t77 -42q50 0 80 32t30 58zM51 266q1 286 191 286q98 0 150 -78v236q0 33 18 33h64q20 0 24 -6t5 -24v-674q-1 -23 -5 -31t-19 -8h-63q-17 0 -20 8q-4 8 -4 21v28q-55 -68 -166 -68q-79 -1 -127 67
t-48 210z" />
    <glyph glyph-name="e" unicode="e" horiz-adv-x="555" 
d="M383 312q11 0 11 19q-2 75 -28 112t-84 37t-86 -42t-28 -106q0 -20 13 -20h202zM503 279q1 -23 -7 -33t-34 -10h-297q0 -163 151 -163q82 0 148 22q28 11 28 -9v-50q0 -12 -6 -18q-34 -29 -192 -29q-244 -1 -243 281q0 282 232 282q104 0 162 -56t58 -155v-62z" />
    <glyph glyph-name="f" unicode="f" horiz-adv-x="342" 
d="M63 446q-22 0 -22 21v34q0 21 16 21h50q-19 40 -19 93t32 91t92 37q60 0 95 -13q7 -3 1 -40t-14 -36q-28 7 -48 7t-34 -16t-15 -53q0 -37 28 -69h67q15 -1 19 -5t4 -15v-35q0 -22 -23 -22h-65v-413q0 -33 -23 -33h-61q-28 0 -28 26v420h-52z" />
    <glyph glyph-name="g" unicode="g" horiz-adv-x="569" 
d="M169 223q0 -157 107 -157q48 0 78 33t30 60v192q0 45 -28 85t-80 40t-79 -46q-28 -46 -28 -123v-84zM502 76q0 -156 -50 -223t-148 -67t-140 10q-43 10 -49 14q-6 5 -6 17v51q-1 18 61 2q62 -15 115 -15q53 -1 79 37t29 124q-1 4 -1 18v18q-54 -73 -150 -73
q-192 0 -191 282q-1 129 45 205t128 76q114 0 168 -71q0 37 4 47t20 10h61q23 0 25 -16v-20v-426z" />
    <glyph glyph-name="h" unicode="h" horiz-adv-x="562" 
d="M382 354q0 100 -96 100q-50 0 -79 -36q-30 -36 -30 -79v-304q0 -35 -18 -35h-69q-16 0 -20 8t-4 27v666q0 31 24 31h69q11 0 15 -6t4 -25v-226q31 39 66 57t99 18t108 -41t44 -131v-332q1 -26 -3 -36t-17 -10h-71q-22 0 -22 36v318z" />
    <glyph glyph-name="i" unicode="i" horiz-adv-x="243" 
d="M66 508q0 30 24 30h63q17 0 21 -6t3 -24v-473q1 -25 -5 -30t-15 -5h-70q-13 0 -17 8t-4 27v473zM177 664q0 -18 -4 -24t-16 -6h-66q-15 0 -20 6t-5 27v36q0 17 5 23t22 6h63q15 0 18 -7t3 -27v-34z" />
    <glyph glyph-name="j" unicode="j" horiz-adv-x="258" 
d="M77 504q0 34 27 34h63q25 0 25 -33v-589q0 -127 -118 -127q-48 0 -91 15q-7 3 -1 41t15 37q26 -6 48 -6q32 0 32 56v572zM187 664q0 -18 -3 -24t-17 -6h-63q-16 0 -20 6t-5 27v34q0 19 5 25t22 6h60q15 0 18 -4t3 -14v-50z" />
    <glyph glyph-name="k" unicode="k" horiz-adv-x="495" 
d="M66 713q0 30 24 30h62q16 1 20 -5t4 -25v-388l162 190q15 23 29 23h89q12 0 17 -4t-11 -23l-197 -232l213 -258q8 -13 6 -17t-17 -5h-87q-12 0 -37 28l-167 204v-193q0 -26 -6 -32t-14 -6h-62q-28 0 -28 37v676z" />
    <glyph glyph-name="l" unicode="l" horiz-adv-x="243" 
d="M66 716q0 27 24 27h63q17 1 21 -5t3 -25v-678q1 -25 -5 -30t-15 -5h-66q-17 0 -21 6t-4 27v683z" />
    <glyph glyph-name="m" unicode="m" horiz-adv-x="840" 
d="M324 550q96 0 136 -90q61 90 159 90q69 0 111 -41t43 -131v-332q0 -46 -22 -46h-66q-17 0 -21 8t-4 28v318q0 100 -82 100t-102 -100v-308q0 -46 -23 -46h-68q-22 0 -22 36v318q0 46 -18 73t-68 27t-75 -36t-25 -79v-301q1 -26 -5 -32t-15 -6h-63q-28 0 -28 37v470
q0 31 24 31h64q24 0 24 -56q50 68 146 68z" />
    <glyph glyph-name="n" unicode="n" horiz-adv-x="562" 
d="M66 507q0 31 24 31h64q24 0 24 -63q54 75 159 75q70 0 114 -41t44 -131v-332q0 -46 -22 -46h-65q-26 0 -26 36v318q0 99 -94 99q-53 1 -82 -35t-29 -79v-301q1 -26 -5 -32t-15 -6h-63q-28 0 -28 37v470z" />
    <glyph glyph-name="o" unicode="o" horiz-adv-x="585" 
d="M420 231v91q0 153 -123 153q-59 1 -93 -39t-34 -119v-98q0 -77 36 -115t92 -38t89 45t33 120zM301 552q233 0 233 -285q0 -134 -62 -206t-181 -72q-118 0 -179 62t-61 215q0 286 250 286z" />
    <glyph glyph-name="p" unicode="p" horiz-adv-x="571" 
d="M295 66q107 0 107 157v84q0 77 -28 123t-80 46t-79 -40q-28 -40 -28 -85v-194q0 -27 31 -59t77 -32zM520 262q0 -274 -192 -273q-96 0 -149 67v-232q0 -33 -18 -33h-66q-17 1 -22 7t-5 26v678q0 24 7 30t19 6h61q24 0 24 -28v-37q56 79 168 79q81 0 127 -76t46 -214z" />
    <glyph glyph-name="q" unicode="q" horiz-adv-x="569" 
d="M169 223q0 -157 107 -157q46 0 77 31t31 56v198q0 45 -28 85t-80 40t-79 -46q-28 -46 -28 -123v-84zM410 -209q-18 0 -18 22v243q-52 -67 -148 -67q-192 0 -193 282q-1 129 45 205t140 76t156 -79v37q0 28 22 28h63q18 0 22 -6t4 -25v-689q0 -16 -5 -22t-22 -5h-66z" />
    <glyph glyph-name="r" unicode="r" horiz-adv-x="370" 
d="M336 545q16 0 16 -11l-3 -63q-3 -15 -15 -15q-46 0 -81 -21q-76 -45 -76 -96v-301q1 -26 -5 -32t-15 -6h-63q-28 0 -28 37v470q0 31 24 31h64q24 0 24 -26v-51q59 84 158 84z" />
    <glyph glyph-name="s" unicode="s" horiz-adv-x="462" 
d="M415 138q0 -149 -192 -149q-114 0 -172 32q-5 3 -5 23t4 38q6 18 15 15l13 -5q13 -5 21 -7q8 -1 29 -7t70 -6q102 0 102 70q0 56 -101 108q-71 36 -107 70t-37 97q1 62 57 99t146 37t127 -17q9 -4 -1 -40t-23 -34q-54 16 -104 16q-90 0 -90 -65q0 -21 24 -41t87 -52
q63 -34 100 -76t37 -106z" />
    <glyph glyph-name="t" unicode="t" horiz-adv-x="372" 
d="M221 123q0 -53 43 -53q26 0 50 6q6 0 10 -18t4 -35t-4 -22q-32 -12 -96 -12t-94 37t-29 94v328h-50q-16 0 -16 21v38q0 12 4 16t18 4h48v100q0 21 28 25l54 10q27 5 27 -25v-110h96q23 0 23 -22v-38q0 -20 -24 -20h-92v-324z" />
    <glyph glyph-name="u" unicode="u" horiz-adv-x="562" 
d="M66 503q0 35 23 35h65q26 0 26 -36v-318q0 -99 93 -99q52 0 82 36t30 78v301q-1 26 5 32t15 6h63q16 0 22 -8t5 -29v-470q-1 -17 -5 -24t-18 -7h-64q-24 0 -24 62q-62 -72 -160 -72q-66 0 -112 42t-46 128v343z" />
    <glyph glyph-name="v" unicode="v" horiz-adv-x="522" 
d="M291 0h-73q-24 0 -35 28l-162 488q-10 22 20 22h67q20 0 27 -24l132 -388l138 388q10 24 26 24h57q16 0 18 -6t-4 -20l-176 -482q-10 -30 -35 -30z" />
    <glyph glyph-name="w" unicode="w" horiz-adv-x="694" 
d="M499 0h-62q-26 0 -35 28l-60 225l-66 -223q-6 -18 -14 -24t-22 -6h-51q-24 0 -35 28l-136 488q-8 22 20 22h66q19 0 26 -24l102 -391l68 257l-38 136q-8 22 20 22h66q18 0 27 -24l101 -391l106 391q10 24 26 24h55q15 0 18 -6t-3 -20l-143 -482q-7 -18 -15 -24t-21 -6z
" />
    <glyph glyph-name="x" unicode="x" horiz-adv-x="467" 
d="M430 0h-72q-14 0 -22 6t-21 28l-88 152l-90 -152q-13 -22 -20 -28t-20 -6h-56q-26 0 -4 35l139 230l-145 243q-12 21 -7 26q6 4 19 4h76q19 0 36 -32l86 -149l88 149q19 32 37 32h54q20 0 21 -7t-9 -23l-140 -230l145 -243q20 -35 -7 -35z" />
    <glyph glyph-name="y" unicode="y" horiz-adv-x="529" 
d="M213 -200h-53q-24 0 -15 23l63 177l-185 516q-9 22 20 22h71q19 0 26 -24l129 -368l131 368q10 24 26 24h60q15 0 18 -6t-3 -20l-255 -687q-11 -25 -33 -25z" />
    <glyph glyph-name="z" unicode="z" horiz-adv-x="474" 
d="M40 518q0 20 21 20h342q27 0 33 -8t-5 -27l-255 -427h240q19 0 22 -6q4 -6 4 -16v-33q0 -13 -4 -17t-20 -4h-351q-63 0 -27 48l245 414h-221q-16 0 -20 3t-4 18v35z" />
    <glyph glyph-name="braceleft" unicode="{" horiz-adv-x="391" 
d="M329 -86q0 -14 -20 -14h-55q-58 0 -90 35t-26 105l13 160q3 38 -25 67t-72 34q-14 2 -14 15v59q0 10 28 14q28 5 58 31q29 26 25 64l-13 138q-6 64 26 102t100 37h47q18 0 18 -16v-54q0 -14 -17 -14h-22q-24 0 -40 -15t-14 -44l15 -154q3 -44 -31 -78t-76 -39
q42 -8 76 -46t31 -85l-13 -160q-6 -70 47 -70h30q14 0 14 -14v-58z" />
    <glyph glyph-name="bar" unicode="|" horiz-adv-x="262" 
d="M182 -166q0 -18 -4 -23t-15 -5h-51q-17 0 -23 6t-6 26v927q0 17 5 23t23 6h53q14 0 16 -6t2 -24v-930z" />
    <glyph glyph-name="braceright" unicode="}" horiz-adv-x="391" 
d="M85 -100q-19 0 -19 14v58q0 14 13 14h31q52 0 46 70l-13 160q-3 46 31 84t76 47q-42 5 -76 39t-31 78l15 154q1 29 -14 44t-39 15h-23q-16 0 -16 14v54q0 16 17 16h47q69 1 101 -37t26 -102l-14 -138q-4 -38 25 -64q30 -26 58 -31q28 -4 28 -14v-59q0 -13 -14 -15
q-44 -5 -72 -34t-25 -67l14 -160q5 -70 -27 -105t-90 -35h-55z" />
    <glyph glyph-name="asciitilde" unicode="~" horiz-adv-x="526" 
d="M332 210q-25 0 -71 29t-73 29t-49 -38q-5 -11 -16 -6l-39 20q-10 3 0 26t41 55t61 32t80 -29t67 -29q35 0 58 44q6 11 15 6l44 -16q10 -4 5 -16q-54 -107 -123 -107z" />
    <glyph glyph-name="nbspace" unicode="&#xa0;" horiz-adv-x="113" 
 />
    <glyph glyph-name="exclamdown" unicode="&#xa1;" horiz-adv-x="275" 
d="M72 701q0 15 5 23t21 8h79q24 0 26 -9t2 -19v-56q0 -25 -22 -25h-82q-19 0 -24 4t-5 19v55zM114 517h40q18 1 22 -5t5 -28l13 -448q0 -24 -6 -30t-19 -6h-60q-16 0 -21 8t-4 26l13 451q0 32 17 32z" />
    <glyph glyph-name="cent" unicode="&#xa2;" horiz-adv-x="569" 
d="M254 604q0 30 24 30h63q17 0 21 -6t3 -25v-54q91 -11 136 -72q5 -9 -13 -27t-40 -29t-28 -2q-34 56 -98 56q-132 0 -133 -158v-98q-1 -77 35 -115t96 -38t99 63q17 19 67 -14q20 -13 16 -22q-45 -81 -137 -99v-55q1 -25 -5 -30t-15 -5h-65q-16 0 -21 8t-5 29v53
q-92 12 -140 75t-47 195q0 132 50 200t137 82v58z" />
    <glyph glyph-name="sterling" unicode="&#xa3;" horiz-adv-x="574" 
d="M517 85v-71q0 -28 -110 -28l-209 15q-56 -1 -86 -7t-34 3q-6 9 1 28q54 153 58 285h-59q-27 0 -27 21v40q-1 17 5 21t25 3h52l-16 137q0 96 57 154q58 58 166 57q108 0 175 -51q15 -22 -9 -73q-10 -20 -17 -15q-59 44 -125 44q-132 0 -132 -133l16 -120h98q26 1 32 -5
t6 -15v-40q0 -17 -7 -21t-30 -4h-96q-3 -103 -37 -202q-5 -13 14 -14l148 -8q83 0 106 10q24 10 30 6q6 -3 5 -17z" />
    <glyph glyph-name="currency" unicode="&#xa4;" horiz-adv-x="605" 
d="M112 389h-22q-28 0 -28 21v38q0 16 6 20t24 4h20v23q0 138 68 193t194 55t179 -42q15 -15 -25 -75q-5 -8 -8 -7t-20 8t-21 8t-19 5q-34 9 -103 9t-97 -38t-27 -131v-8h146q27 0 32 -5q6 -5 6 -14v-39q0 -16 -7 -20t-30 -5h-147v-63h146q27 0 32 -5q6 -5 6 -14v-39
q0 -16 -7 -20t-30 -5h-147v-34q0 -131 139 -131q70 0 136 29q14 5 19 7t17 -34t4 -56q-61 -37 -169 -37t-188 45q-79 45 -79 177v34h-22q-28 0 -28 21v38q0 16 6 20t24 4h20v63z" />
    <glyph glyph-name="yen" unicode="&#xa5;" horiz-adv-x="591" 
d="M367 22q0 -22 -23 -22h-78q-12 0 -16 4t-3 16v124h-88q-28 0 -28 21v38q-1 17 5 21t25 3h86v75l-210 410q-7 14 -3 17t17 3h87q17 0 28 -21l153 -310l152 311q11 20 30 20h58q16 0 19 -5t-6 -21l-205 -405v-74h81q27 0 32 -5q6 -5 6 -14v-39q0 -17 -7 -21t-30 -4h-82
v-122z" />
    <glyph glyph-name="brokenbar" unicode="&#xa6;" 
d="M268 305h-96l49 164zM245 539h-40q-12 0 -18 -16l-99 -327q-5 -16 3 -16h35q7 0 9 2t4 11l22 75h119l23 -75q2 -12 5 -12q3 -1 6 -1h39q8 0 10 2t0 14l-100 327q-4 16 -18 16zM591 539q-8 0 -11 -13l-82 -276l-83 276q-7 12 -12 13h-38q-13 0 -12 -5t2 -11l101 -331
q3 -12 15 -12h45q11 0 14 11l103 337q4 11 -11 11h-31zM719 72h-711v564h711v-564z" />
    <glyph glyph-name="section" unicode="&#xa7;" horiz-adv-x="492" 
d="M341 322q1 32 -25 57t-68 27t-65 -18t-23 -50t30 -58t73 -30q78 -3 78 72zM430 334q0 -58 -27 -92t-66 -45q84 -63 84 -137t-54 -111q-53 -37 -141 -37t-146 32q-6 3 -6 23t6 38t14 15q72 -25 124 -25q104 0 104 70q0 56 -105 107q-70 34 -108 70t-38 90t36 89t87 38
q-114 66 -114 138t56 109t144 37q90 0 127 -17q9 -3 -2 -42t-22 -36q-71 20 -114 20q-90 0 -90 -65q1 -27 49 -59q18 -12 71 -43q55 -31 93 -71q38 -38 38 -96z" />
    <glyph glyph-name="dieresis" unicode="&#xa8;" horiz-adv-x="474" 
d="M165 652q0 -25 -23 -25h-62q-17 0 -22 4t-5 16v64q0 28 22 28h64q26 0 26 -28v-59zM300 627q-32 0 -32 28v59q0 25 22 25h62q18 -1 23 -5t5 -18v-62q0 -27 -22 -27h-58z" />
    <glyph glyph-name="copyright" unicode="&#xa9;" horiz-adv-x="760" 
d="M251 418q0 127 149 127q54 0 88 -21q5 -5 -5 -27t-12 -21q-38 16 -66 16q-87 0 -87 -79v-129q0 -67 76 -67q44 0 80 18q7 2 10 -22q3 -25 1 -28q-30 -19 -96 -19t-102 30t-36 82v140zM681 358q0 130 -88 218t-213 88t-213 -88t-88 -218t88 -219t213 -89t213 89t88 219z
M735 357q1 -149 -103 -253t-252 -104t-252 104t-103 253q-1 149 103 253t252 104t252 -104t103 -253z" />
    <glyph glyph-name="ordfeminine" unicode="&#xaa;" horiz-adv-x="441" 
d="M285 487v108q1 29 -21 59t-56 30q-70 0 -70 -112v-60q0 -48 18 -78t52 -30q32 0 54 27t23 56zM52 538q0 204 134 203q70 0 104 -59v32q0 17 13 17h48q14 0 17 -4t3 -17v-328q0 -28 -15 -28h-49q-16 0 -16 21v29q-29 -57 -123 -57q-48 0 -82 47q-34 48 -34 144z" />
    <glyph glyph-name="guillemotleft" unicode="&#xab;" horiz-adv-x="565" 
d="M490 144q12 -18 -3 -25l-50 -28q-15 -7 -27 12l-152 217l148 218q14 21 28 12l50 -28q13 -9 0 -29l-121 -173zM266 144q12 -18 -3 -25l-50 -28q-15 -7 -27 12l-152 217l148 218q14 21 28 12l50 -28q13 -9 0 -29l-121 -173z" />
    <glyph glyph-name="logicalnot" unicode="&#xac;" 
d="M268 305h-96l49 164zM245 539h-40q-12 0 -18 -16l-99 -327q-5 -16 3 -16h35q7 0 9 2t4 11l22 75h119l23 -75q2 -12 5 -12q3 -1 6 -1h39q8 0 10 2t0 14l-100 327q-4 16 -18 16zM591 539q-8 0 -11 -13l-82 -276l-83 276q-7 12 -12 13h-38q-13 0 -12 -5t2 -11l101 -331
q3 -12 15 -12h45q11 0 14 11l103 337q4 11 -11 11h-31zM719 72h-711v564h711v-564z" />
    <glyph glyph-name="registered" unicode="&#xae;" horiz-adv-x="760" 
d="M396 376q53 0 53 56t-65 57h-46q-9 1 -9 -9v-95q0 -9 10 -9h57zM262 528q0 13 12 13h113q65 1 98 -29t33 -76t-23 -70t-45 -31q-7 -3 -4 -7l83 -136q11 -18 -4 -18h-52q-7 0 -14 14l-81 129q-2 4 -9 4h-34q-6 0 -6 -9v-121q0 -16 -12 -16h-46q-9 0 -9 9v344zM681 358
q0 130 -88 218t-213 88t-213 -88t-88 -218t88 -219t213 -89t213 89t88 219zM735 357q1 -149 -103 -253t-252 -104t-252 104t-103 253q-1 149 103 253t252 104t252 -104t103 -253z" />
    <glyph glyph-name="macron" unicode="&#xaf;" horiz-adv-x="474" 
d="M414 676q0 -16 -7 -21t-30 -5h-270q-28 0 -28 21v31q-1 17 5 20t25 3h267q27 0 32 -5q6 -5 6 -14v-30z" />
    <glyph glyph-name="degree" unicode="&#xb0;" horiz-adv-x="419" 
d="M286 593q0 33 -22 57t-51 23q-29 1 -51 -23t-22 -57t21 -55t52 -22t52 22t21 55zM354 594q0 -58 -42 -100t-100 -42t-100 40t-41 100q-1 60 41 102t100 42t100 -42t42 -100z" />
    <glyph glyph-name="plusminus" unicode="&#xb1;" horiz-adv-x="883" 
d="M706 716q0 27 24 27h63q17 1 21 -5t3 -25v-678q1 -25 -5 -30t-15 -5h-66q-17 0 -21 6t-4 27v683zM63 446q-22 0 -22 21v34q0 21 16 21h50q-19 40 -19 93t32 91t92 37q60 0 95 -13q7 -3 1 -40t-14 -36q-28 7 -48 7t-34 -16t-15 -53q0 -37 28 -69h178q-19 41 -19 93t32 90
t92 37q60 0 95 -13q7 -3 1 -40t-14 -36q-28 7 -48 7t-34 -16t-15 -53q0 -37 28 -69h67q15 -1 19 -5t4 -15v-35q0 -22 -23 -22h-65v-413q0 -33 -23 -33h-61q-28 0 -28 26v420h-184v-413q0 -33 -23 -33h-61q-28 0 -28 26v420h-52z" />
    <glyph glyph-name="twosuperior" unicode="&#xb2;" 
d="M268 305h-96l49 164zM245 539h-40q-12 0 -18 -16l-99 -327q-5 -16 3 -16h35q7 0 9 2t4 11l22 75h119l23 -75q2 -12 5 -12q3 -1 6 -1h39q8 0 10 2t0 14l-100 327q-4 16 -18 16zM591 539q-8 0 -11 -13l-82 -276l-83 276q-7 12 -12 13h-38q-13 0 -12 -5t2 -11l101 -331
q3 -12 15 -12h45q11 0 14 11l103 337q4 11 -11 11h-31zM719 72h-711v564h711v-564z" />
    <glyph glyph-name="threesuperior" unicode="&#xb3;" 
d="M268 305h-96l49 164zM245 539h-40q-12 0 -18 -16l-99 -327q-5 -16 3 -16h35q7 0 9 2t4 11l22 75h119l23 -75q2 -12 5 -12q3 -1 6 -1h39q8 0 10 2t0 14l-100 327q-4 16 -18 16zM591 539q-8 0 -11 -13l-82 -276l-83 276q-7 12 -12 13h-38q-13 0 -12 -5t2 -11l101 -331
q3 -12 15 -12h45q11 0 14 11l103 337q4 11 -11 11h-31zM719 72h-711v564h711v-564z" />
    <glyph glyph-name="acute" unicode="&#xb4;" horiz-adv-x="474" 
d="M184 597h-39q-23 0 -6 26l92 128q4 4 5 7q0 2 2 4t3 2t3 2q6 6 11 6h76q14 0 21 -4t-12 -24l-124 -129q-16 -18 -32 -18z" />
    <glyph glyph-name="mu" unicode="&#xb5;" 
d="M268 305h-96l49 164zM245 539h-40q-12 0 -18 -16l-99 -327q-5 -16 3 -16h35q7 0 9 2t4 11l22 75h119l23 -75q2 -12 5 -12q3 -1 6 -1h39q8 0 10 2t0 14l-100 327q-4 16 -18 16zM591 539q-8 0 -11 -13l-82 -276l-83 276q-7 12 -12 13h-38q-13 0 -12 -5t2 -11l101 -331
q3 -12 15 -12h45q11 0 14 11l103 337q4 11 -11 11h-31zM719 72h-711v564h711v-564z" />
    <glyph glyph-name="mu" unicode="&#x3bc;" 
d="M268 305h-96l49 164zM245 539h-40q-12 0 -18 -16l-99 -327q-5 -16 3 -16h35q7 0 9 2t4 11l22 75h119l23 -75q2 -12 5 -12q3 -1 6 -1h39q8 0 10 2t0 14l-100 327q-4 16 -18 16zM591 539q-8 0 -11 -13l-82 -276l-83 276q-7 12 -12 13h-38q-13 0 -12 -5t2 -11l101 -331
q3 -12 15 -12h45q11 0 14 11l103 337q4 11 -11 11h-31zM719 72h-711v564h711v-564z" />
    <glyph glyph-name="paragraph" unicode="&#xb6;" horiz-adv-x="576" 
d="M461 732q36 0 36 -26v-849q-1 -24 -5 -29q-4 -6 -14 -6h-44q-13 0 -13 11v819q0 13 -9 13h-32q-11 0 -11 -13v-819q0 -11 -13 -11h-38q-14 0 -19 4t-5 17v381q0 27 -30 27q-67 0 -134 56t-67 176q0 121 84 185t225 64h89z" />
    <glyph glyph-name="periodcentered" unicode="&#xb7;" horiz-adv-x="245" 
d="M56 338q0 27 20 27h82q20 0 26 -5t5 -18v-54q0 -36 -24 -36h-77q-32 0 -32 32v54z" />
    <glyph glyph-name="cedilla" unicode="&#xb8;" horiz-adv-x="474" 
d="M260 -41q84 1 84 -79q0 -40 -32 -62t-87 -22q-54 0 -84 35q-5 6 1 16t16 16t12 2q16 -21 63 -21t47 38t-51 37q-7 1 -17 -1t-10 4v94h58v-57z" />
    <glyph glyph-name="onesuperior" unicode="&#xb9;" 
d="M268 305h-96l49 164zM245 539h-40q-12 0 -18 -16l-99 -327q-5 -16 3 -16h35q7 0 9 2t4 11l22 75h119l23 -75q2 -12 5 -12q3 -1 6 -1h39q8 0 10 2t0 14l-100 327q-4 16 -18 16zM591 539q-8 0 -11 -13l-82 -276l-83 276q-7 12 -12 13h-38q-13 0 -12 -5t2 -11l101 -331
q3 -12 15 -12h45q11 0 14 11l103 337q4 11 -11 11h-31zM719 72h-711v564h711v-564z" />
    <glyph glyph-name="ordmasculine" unicode="&#xba;" horiz-adv-x="450" 
d="M314 577q0 103 -82 103q-39 0 -62 -27t-23 -80v-68q-1 -51 23 -77t62 -26t60 32t22 79v64zM235 738q162 0 162 -197t-166 -197q-87 0 -129 44t-42 150q0 200 175 200z" />
    <glyph glyph-name="guillemotright" unicode="&#xbb;" horiz-adv-x="565" 
d="M532 321l-152 -220q-12 -17 -26 -10l-50 27q-16 7 -4 26l128 177l-121 172q-13 19 0 27l49 30q15 10 30 -13zM308 321l-152 -220q-12 -17 -26 -10l-50 27q-16 7 -4 26l128 177l-121 172q-13 19 0 27l49 30q15 10 30 -13z" />
    <glyph glyph-name="onequarter" unicode="&#xbc;" 
d="M268 305h-96l49 164zM245 539h-40q-12 0 -18 -16l-99 -327q-5 -16 3 -16h35q7 0 9 2t4 11l22 75h119l23 -75q2 -12 5 -12q3 -1 6 -1h39q8 0 10 2t0 14l-100 327q-4 16 -18 16zM591 539q-8 0 -11 -13l-82 -276l-83 276q-7 12 -12 13h-38q-13 0 -12 -5t2 -11l101 -331
q3 -12 15 -12h45q11 0 14 11l103 337q4 11 -11 11h-31zM719 72h-711v564h711v-564z" />
    <glyph glyph-name="onehalf" unicode="&#xbd;" 
d="M268 305h-96l49 164zM245 539h-40q-12 0 -18 -16l-99 -327q-5 -16 3 -16h35q7 0 9 2t4 11l22 75h119l23 -75q2 -12 5 -12q3 -1 6 -1h39q8 0 10 2t0 14l-100 327q-4 16 -18 16zM591 539q-8 0 -11 -13l-82 -276l-83 276q-7 12 -12 13h-38q-13 0 -12 -5t2 -11l101 -331
q3 -12 15 -12h45q11 0 14 11l103 337q4 11 -11 11h-31zM719 72h-711v564h711v-564z" />
    <glyph glyph-name="threequarters" unicode="&#xbe;" 
d="M268 305h-96l49 164zM245 539h-40q-12 0 -18 -16l-99 -327q-5 -16 3 -16h35q7 0 9 2t4 11l22 75h119l23 -75q2 -12 5 -12q3 -1 6 -1h39q8 0 10 2t0 14l-100 327q-4 16 -18 16zM591 539q-8 0 -11 -13l-82 -276l-83 276q-7 12 -12 13h-38q-13 0 -12 -5t2 -11l101 -331
q3 -12 15 -12h45q11 0 14 11l103 337q4 11 -11 11h-31zM719 72h-711v564h711v-564z" />
    <glyph glyph-name="questiondown" unicode="&#xbf;" horiz-adv-x="444" 
d="M182 696q0 36 24 36h77q33 0 33 -32v-50q0 -27 -21 -27h-85q-28 0 -28 22v51zM282 512q24 0 24 -36t-6 -63t-23 -51t-37 -45t-50 -57q-32 -36 -32 -84q0 -100 95 -100q59 0 115 45q7 5 26 -26t1 -54q-73 -52 -159 -52t-137 44q-52 45 -52 105q0 104 74 177q74 74 74 119
v53q0 25 22 25h65z" />
    <glyph glyph-name="Agrave" unicode="&#xc0;" horiz-adv-x="639" 
d="M369 777h-39q-16 0 -32 18l-124 129q-28 28 8 28h70q14 0 19 -6t12 -15l91 -128q19 -26 -5 -26zM408 255l-97 334l-98 -334h195zM581 0h-79q-13 0 -16 4t-8 22l-43 140h-249l-42 -140q-5 -16 -9 -21t-16 -5h-72q-9 0 -11 5t4 28l203 667q6 18 13 25t24 7h82q26 0 37 -32
l203 -667q4 -25 0 -29t-21 -4z" />
    <glyph glyph-name="Aacute" unicode="&#xc1;" horiz-adv-x="639" 
d="M321 777h-39q-23 0 -6 26l92 128q4 4 5 7q1 2 3 4l2 2l2 2q6 6 12 6h76q14 0 21 -4t-12 -24l-124 -129q-16 -18 -32 -18zM408 255l-97 334l-98 -334h195zM581 0h-79q-13 0 -16 4t-8 22l-43 140h-249l-42 -140q-5 -16 -9 -21t-16 -5h-72q-9 0 -11 5t4 28l203 667
q6 18 13 25t24 7h82q26 0 37 -32l203 -667q4 -25 0 -29t-21 -4z" />
    <glyph glyph-name="Acircumflex" unicode="&#xc2;" horiz-adv-x="639" 
d="M454 777h-37q-17 0 -26 12l-71 94l-71 -94q-10 -12 -26 -12h-38q-25 0 -5 26l91 128q15 21 28 21h40q20 0 30 -21l91 -128q19 -26 -6 -26zM408 255l-97 334l-98 -334h195zM581 0h-79q-13 0 -16 4t-8 22l-43 140h-249l-42 -140q-5 -16 -9 -21t-16 -5h-72q-9 0 -11 5t4 28
l203 667q6 18 13 25t24 7h82q26 0 37 -32l203 -667q4 -25 0 -29t-21 -4z" />
    <glyph glyph-name="Atilde" unicode="&#xc3;" horiz-adv-x="639" 
d="M386 798q-24 0 -68 28t-71 27q-26 0 -48 -38q-6 -11 -15 -6l-37 19q-9 4 1 26t40 52t58 30q30 0 78 -28t74 -29q26 0 49 41q5 11 14 6l40 -13q9 -4 4 -15q-50 -100 -119 -100zM408 255l-97 334l-98 -334h195zM581 0h-79q-13 0 -16 4t-8 22l-43 140h-249l-42 -140
q-5 -16 -9 -21t-16 -5h-72q-9 0 -11 5t4 28l203 667q6 18 13 25t24 7h82q26 0 37 -32l203 -667q4 -25 0 -29t-21 -4z" />
    <glyph glyph-name="Adieresis" unicode="&#xc4;" horiz-adv-x="639" 
d="M264 832q0 -25 -23 -25h-62q-17 0 -22 4t-5 16v64q0 28 22 28h64q26 0 26 -28v-59zM399 807q-32 0 -32 28v59q0 25 22 25h62q18 -1 23 -5t5 -18v-62q0 -27 -22 -27h-58zM408 255l-97 334l-98 -334h195zM581 0h-79q-13 0 -16 4t-8 22l-43 140h-249l-42 -140q-5 -16 -9 -21
t-16 -5h-72q-9 0 -11 5t4 28l203 667q6 18 13 25t24 7h82q26 0 37 -32l203 -667q4 -25 0 -29t-21 -4z" />
    <glyph glyph-name="Aring" unicode="&#xc5;" horiz-adv-x="639" 
d="M384 888q0 25 -18 45t-44 20t-43 -20q-18 -20 -18 -45q-1 -25 17 -45t44 -20t44 20t18 45zM442 888q0 -48 -36 -82t-84 -34t-84 34t-35 82q-1 48 35 82t84 34t84 -34t36 -82zM408 255l-97 334l-98 -334h195zM581 0h-79q-13 0 -16 4t-8 22l-43 140h-249l-42 -140
q-5 -16 -9 -21t-16 -5h-72q-9 0 -11 5t4 28l203 667q6 18 13 25t24 7h82q26 0 37 -32l203 -667q4 -25 0 -29t-21 -4z" />
    <glyph glyph-name="AE" unicode="&#xc6;" horiz-adv-x="889" 
d="M417 273v351l-169 -370h151q18 0 18 19zM561 336q-28 0 -28 -23v-196q0 -16 6 -19t22 -3h243q20 1 28 -3t8 -16v-58q0 -18 -21 -18h-379q-23 0 -23 29v118q0 19 -18 19h-187l-66 -140q-10 -26 -30 -26h-67q-23 0 -11 28l317 672q10 23 17 27q8 5 19 5h407q18 0 22 -2
t5 -14v-59q0 -12 -13 -14t-33 -2h-222q-26 0 -26 -16v-173q0 -23 22 -23h197q20 0 26 -4t4 -14l-7 -56q1 -3 -1 -5t-3 -5l-3 -3t-5 -3q-1 -1 -5 -1t-6 -2h-49h-140z" />
    <glyph glyph-name="Ccedilla" unicode="&#xc7;" horiz-adv-x="600" 
d="M370 -41q84 1 84 -79q0 -40 -32 -62t-87 -22q-54 0 -84 35q-5 6 1 16t16 16t12 2q16 -21 63 -21t47 38t-51 37q-7 1 -17 -1t-10 4v66q-114 9 -176 67t-62 154v281q0 186 152 234q60 20 165 19q105 0 157 -42q7 -6 -9 -45t-24 -37q-2 1 -13 5t-16 8q-35 18 -119 17
q-171 0 -171 -169v-260q0 -74 48 -108t94 -34q47 0 70 2t41 8q17 5 29 9t26 10q14 5 18 7q5 2 17 -34t4 -56q-50 -33 -173 -37v-28z" />
    <glyph glyph-name="Egrave" unicode="&#xc8;" horiz-adv-x="551" 
d="M363 777h-39q-16 0 -32 18l-124 129q-28 28 8 28h70q14 0 19 -6t12 -15l91 -128q19 -26 -5 -26zM467 95q37 0 37 -19v-58q0 -18 -21 -18h-380q-23 0 -23 29v670q0 33 19 33h362q19 0 23 -2t4 -14v-59q0 -12 -14 -14t-32 -2h-222q-26 0 -26 -16v-173q0 -23 22 -23h198
q20 0 26 -4t4 -14l-7 -56q1 -3 -1 -5t-3 -5q-1 -1 -4 -3t-5 -3t-4 -1q-4 0 -6 -2h-50h-140q-28 0 -28 -23v-196q0 -19 14 -21q4 0 15 -1h242z" />
    <glyph glyph-name="Eacute" unicode="&#xc9;" horiz-adv-x="551" 
d="M280 777h-39q-23 0 -6 26l92 128q4 4 5 7q0 2 2 4t3 2t3 2q6 6 11 6h76q14 0 21 -4t-12 -24l-124 -129q-16 -18 -32 -18zM467 95q37 0 37 -19v-58q0 -18 -21 -18h-380q-23 0 -23 29v670q0 33 19 33h362q19 0 23 -2t4 -14v-59q0 -12 -14 -14t-32 -2h-222q-26 0 -26 -16
v-173q0 -23 22 -23h198q20 0 26 -4t4 -14l-7 -56q1 -3 -1 -5t-3 -5q-1 -1 -4 -3t-5 -3t-4 -1q-4 0 -6 -2h-50h-140q-28 0 -28 -23v-196q0 -19 14 -21q4 0 15 -1h242z" />
    <glyph glyph-name="Ecircumflex" unicode="&#xca;" horiz-adv-x="551" 
d="M422 777h-37q-17 0 -26 12l-71 94l-71 -94q-10 -12 -26 -12h-38q-25 0 -5 26l91 128q15 21 28 21h40q20 0 30 -21l91 -128q19 -26 -6 -26zM467 95q37 0 37 -19v-58q0 -18 -21 -18h-380q-23 0 -23 29v670q0 33 19 33h362q19 0 23 -2t4 -14v-59q0 -12 -14 -14t-32 -2h-222
q-26 0 -26 -16v-173q0 -23 22 -23h198q20 0 26 -4t4 -14l-7 -56q1 -3 -1 -5t-3 -5q-1 -1 -4 -3t-5 -3t-4 -1q-4 0 -6 -2h-50h-140q-28 0 -28 -23v-196q0 -19 14 -21q4 0 15 -1h242z" />
    <glyph glyph-name="Edieresis" unicode="&#xcb;" horiz-adv-x="551" 
d="M232 832q0 -25 -23 -25h-62q-17 0 -22 4t-5 16v64q0 28 22 28h64q26 0 26 -28v-59zM367 807q-32 0 -32 28v59q0 25 22 25h62q18 -1 23 -5t5 -18v-62q0 -27 -22 -27h-58zM467 95q37 0 37 -19v-58q0 -18 -21 -18h-380q-23 0 -23 29v670q0 33 19 33h362q19 0 23 -2t4 -14
v-59q0 -12 -14 -14t-32 -2h-222q-26 0 -26 -16v-173q0 -23 22 -23h198q20 0 26 -4t4 -14l-7 -56q1 -3 -1 -5t-3 -5q-1 -1 -4 -3t-5 -3t-4 -1q-4 0 -6 -2h-50h-140q-28 0 -28 -23v-196q0 -19 14 -21q4 0 15 -1h242z" />
    <glyph glyph-name="Igrave" unicode="&#xcc;" horiz-adv-x="281" 
d="M186 777h-39q-16 0 -32 18l-124 129q-28 28 8 28h70q14 0 19 -6t12 -15l91 -128q19 -26 -5 -26zM201 23q0 -13 -4 -18t-17 -5h-77q-15 0 -19 6t-4 22v682q0 14 5 18t22 4h74q13 0 17 -6t3 -22v-681z" />
    <glyph glyph-name="Iacute" unicode="&#xcd;" horiz-adv-x="281" 
d="M138 777h-39q-23 0 -6 26l92 128q4 4 5 7q0 2 2 4t3 2t3 2q6 6 11 6h76q14 0 21 -4t-12 -24l-124 -129q-16 -18 -32 -18zM201 23q0 -13 -4 -18t-17 -5h-77q-15 0 -19 6t-4 22v682q0 14 5 18t22 4h74q13 0 17 -6t3 -22v-681z" />
    <glyph glyph-name="Icircumflex" unicode="&#xce;" horiz-adv-x="281" 
d="M276 777h-37q-17 0 -26 12l-71 94l-71 -94q-10 -12 -26 -12h-38q-25 0 -5 26l91 128q15 21 28 21h40q20 0 30 -21l91 -128q20 -26 -6 -26zM201 23q0 -13 -4 -18t-17 -5h-77q-15 0 -19 6t-4 22v682q0 14 5 18t22 4h74q13 0 17 -6t3 -22v-681z" />
    <glyph glyph-name="Idieresis" unicode="&#xcf;" horiz-adv-x="281" 
d="M87 832q0 -25 -23 -25h-62q-17 0 -22 4t-5 16v64q0 28 22 28h64q26 0 26 -28v-59zM222 807q-32 0 -32 28v59q0 25 22 25h62q18 -1 23 -5t5 -18v-62q0 -27 -22 -27h-58zM201 23q0 -13 -4 -18t-17 -5h-77q-15 0 -19 6t-4 22v682q0 14 5 18t22 4h74q13 0 17 -6t3 -22v-681z
" />
    <glyph glyph-name="Eth" unicode="&#xd0;" horiz-adv-x="664" 
d="M199 119q0 -23 26 -23h81q91 0 127 37t36 109v246q0 149 -164 149h-83q-15 -1 -19 -5t-4 -16v-196h79q27 0 32 -5t5 -14v-49q0 -16 -7 -20t-30 -5h-79v-208zM590 228q0 -228 -253 -228h-232q-25 0 -25 35v292h-31q-28 0 -28 21v49q-1 17 5 20t26 3h28v279q0 33 21 33h203
q207 0 263 -118q23 -48 23 -118v-268z" />
    <glyph glyph-name="Ntilde" unicode="&#xd1;" horiz-adv-x="719" 
d="M427 798q-25 0 -69 28t-70 27q-26 0 -48 -38q-6 -11 -15 -6l-37 19q-8 4 2 26t38 52q30 30 60 30t76 -28q48 -28 74 -29q26 0 50 41q5 11 14 6l40 -13q9 -4 4 -15q-50 -100 -119 -100zM617 732q20 0 20 -33v-664q0 -22 -4 -30t-18 -7l-72 1q-22 0 -36 25l-291 488
q-13 22 -17 22t-5 -23v-476q0 -21 -4 -28t-18 -7h-65q-27 0 -27 30v670q0 32 18 32h70q25 0 29 -4t8 -10t6 -7l292 -496q18 -33 21 1v484q0 14 4 24t12 8h77z" />
    <glyph glyph-name="Ograve" unicode="&#xd2;" horiz-adv-x="691" 
d="M421 777h-39q-16 0 -32 18l-124 129q-28 28 8 28h70q14 0 19 -6t12 -15l91 -128q19 -26 -5 -26zM496 242v246q0 157 -146 157q-86 1 -122 -39t-36 -122v-261q0 -69 46 -103t113 -34t106 33t39 123zM354 -13q-280 0 -280 210v295q0 133 66 192t205 59q272 0 272 -248v-267
q0 -204 -179 -234q-42 -7 -84 -7z" />
    <glyph glyph-name="Oacute" unicode="&#xd3;" horiz-adv-x="691" 
d="M329 777h-39q-23 0 -6 26l92 128q4 4 5 7q1 2 3 4l2 2l2 2q6 6 12 6h76q14 0 21 -4t-12 -24l-124 -129q-16 -18 -32 -18zM496 242v246q0 157 -146 157q-86 1 -122 -39t-36 -122v-261q0 -69 46 -103t113 -34t106 33t39 123zM354 -13q-280 0 -280 210v295q0 133 66 192
t205 59q272 0 272 -248v-267q0 -204 -179 -234q-42 -7 -84 -7z" />
    <glyph glyph-name="Ocircumflex" unicode="&#xd4;" horiz-adv-x="691" 
d="M485 777h-37q-17 0 -26 12l-71 94l-71 -94q-10 -12 -26 -12h-38q-25 0 -5 26l91 128q15 21 28 21h40q20 0 30 -21l91 -128q19 -26 -6 -26zM496 242v246q0 157 -146 157q-86 1 -122 -39t-36 -122v-261q0 -69 46 -103t113 -34t106 33t39 123zM354 -13q-280 0 -280 210v295
q0 133 66 192t205 59q272 0 272 -248v-267q0 -204 -179 -234q-42 -7 -84 -7z" />
    <glyph glyph-name="Otilde" unicode="&#xd5;" horiz-adv-x="691" 
d="M411 798q-25 0 -69 28t-70 27q-26 0 -48 -38q-6 -11 -15 -6l-37 19q-8 4 2 26t38 52q30 30 60 30t76 -28q48 -28 74 -29q26 0 50 41q5 11 14 6l40 -13q9 -4 4 -15q-50 -100 -119 -100zM496 242v246q0 157 -146 157q-86 1 -122 -39t-36 -122v-261q0 -69 46 -103t113 -34
t106 33t39 123zM354 -13q-280 0 -280 210v295q0 133 66 192t205 59q272 0 272 -248v-267q0 -204 -179 -234q-42 -7 -84 -7z" />
    <glyph glyph-name="Odieresis" unicode="&#xd6;" horiz-adv-x="691" 
d="M295 832q0 -25 -23 -25h-62q-17 0 -22 4t-5 16v64q0 28 22 28h64q26 0 26 -28v-59zM430 807q-32 0 -32 28v59q0 25 22 25h62q18 -1 23 -5t5 -18v-62q0 -27 -22 -27h-58zM496 242v246q0 157 -146 157q-86 1 -122 -39t-36 -122v-261q0 -69 46 -103t113 -34t106 33t39 123z
M354 -13q-280 0 -280 210v295q0 133 66 192t205 59q272 0 272 -248v-267q0 -204 -179 -234q-42 -7 -84 -7z" />
    <glyph glyph-name="multiply" unicode="&#xd7;" 
d="M268 305h-96l49 164zM245 539h-40q-12 0 -18 -16l-99 -327q-5 -16 3 -16h35q7 0 9 2t4 11l22 75h119l23 -75q2 -12 5 -12q3 -1 6 -1h39q8 0 10 2t0 14l-100 327q-4 16 -18 16zM591 539q-8 0 -11 -13l-82 -276l-83 276q-7 12 -12 13h-38q-13 0 -12 -5t2 -11l101 -331
q3 -12 15 -12h45q11 0 14 11l103 337q4 11 -11 11h-31zM719 72h-711v564h711v-564z" />
    <glyph glyph-name="Oslash" unicode="&#xd8;" horiz-adv-x="691" 
d="M496 242v246q0 19 -1 28l-69 -94q-70 -93 -140 -187l-69 -94q41 -55 121 -55t119 33t39 123zM347 645q-83 1 -119 -39t-36 -122v-253l273 369q-35 45 -118 45zM48 0q-11 0 -17 4t14 28l50 67q-21 42 -21 98v295q0 133 66 192t196 59t198 -50l13 18q13 18 21 23t26 5h46
q6 1 9 -1t1 -8t-66 -93q33 -57 33 -142v-267q0 -204 -179 -234q-42 -7 -90 -7q-136 0 -206 54q-27 -41 -50 -41h-44z" />
    <glyph glyph-name="Ugrave" unicode="&#xd9;" horiz-adv-x="668" 
d="M417 777h-39q-16 0 -32 18l-124 129q-28 28 8 28h70q14 0 19 -6t12 -15l91 -128q19 -26 -5 -26zM565 732q25 0 25 -33v-472q0 -240 -258 -240q-94 0 -174 49t-80 174v496q0 25 17 26h76q25 0 25 -33v-451q0 -76 38 -118t107 -43q69 1 99 41t30 122v456q0 25 17 26h78z
" />
    <glyph glyph-name="Uacute" unicode="&#xda;" horiz-adv-x="668" 
d="M311 777h-39q-23 0 -6 26l92 128q4 4 5 7q1 2 3 4l2 2l2 2q5 5 12 6h76q14 0 21 -4t-12 -24l-124 -129q-16 -18 -32 -18zM565 732q25 0 25 -33v-472q0 -240 -258 -240q-94 0 -174 49t-80 174v496q0 25 17 26h76q25 0 25 -33v-451q0 -76 38 -118t107 -43q69 1 99 41
t30 122v456q0 25 17 26h78z" />
    <glyph glyph-name="Ucircumflex" unicode="&#xdb;" horiz-adv-x="668" 
d="M467 777h-37q-17 0 -26 12l-71 94l-71 -94q-10 -12 -26 -12h-38q-25 0 -5 26l91 128q15 21 28 21h40q20 0 30 -21l91 -128q19 -26 -6 -26zM565 732q25 0 25 -33v-472q0 -240 -258 -240q-94 0 -174 49t-80 174v496q0 25 17 26h76q25 0 25 -33v-451q0 -76 38 -118t107 -43
q69 1 99 41t30 122v456q0 25 17 26h78z" />
    <glyph glyph-name="Udieresis" unicode="&#xdc;" horiz-adv-x="668" 
d="M284 832q0 -25 -23 -25h-62q-17 0 -22 4t-5 16v64q0 28 22 28h64q26 0 26 -28v-59zM419 807q-32 0 -32 28v59q0 25 22 25h62q18 -1 23 -5t5 -18v-62q0 -27 -22 -27h-58zM565 732q25 0 25 -33v-472q0 -240 -258 -240q-94 0 -174 49t-80 174v496q0 25 17 26h76q25 0 25 -33
v-451q0 -76 38 -118t107 -43q69 1 99 41t30 122v456q0 25 17 26h78z" />
    <glyph glyph-name="Yacute" unicode="&#xdd;" horiz-adv-x="629" 
d="M338 777h-39q-23 0 -6 26l92 128q4 4 5 7q0 2 2 4t3 2t3 2q6 6 12 6h75q14 0 21 -4t-12 -24l-124 -129q-16 -18 -32 -18zM274 0q-19 0 -19 20v282l-223 410q-8 14 -4 17t18 3h87q15 0 28 -21l165 -307l163 308q3 3 5 7q2 5 4 7t4 2t4 2t6 2h69q16 0 19 -5q4 -5 -8 -26
q-107 -195 -184 -341l-32 -59v-279q0 -22 -23 -22h-79z" />
    <glyph glyph-name="Thorn" unicode="&#xde;" horiz-adv-x="634" 
d="M469 383q1 71 -43 105t-113 34h-93q-18 -1 -18 -18v-247q0 -11 4 -15t16 -4h121q57 0 91 36t35 109zM202 23q0 -23 -22 -23h-77q-15 0 -19 6t-4 22v682q0 14 5 18t22 4h74q13 0 17 -6t3 -22v-72q0 -19 21 -19h96q274 0 274 -232q0 -116 -66 -177t-194 -61h-114
q-10 1 -13 -3t-3 -17v-100z" />
    <glyph glyph-name="germandbls" unicode="&#xdf;" horiz-adv-x="710" 
d="M63 446q-22 0 -22 21v34q0 21 16 21h54v66q-1 63 47 109t142 46q94 -1 144 -39q52 -38 52 -111q0 -40 -34 -90t-35 -82q0 -44 83 -88q82 -43 122 -87t40 -113t-57 -107t-149 -37q-92 0 -151 32q-5 3 -5 23t4 38q6 18 15 15q1 -1 17 -7q44 -19 109 -18q102 0 102 72
q0 52 -107 110q-108 58 -128 104q-10 24 -10 54t38 84t39 90q-1 36 -23 55q-22 20 -59 20q-37 1 -57 -25t-20 -65v-538q0 -33 -23 -33h-64q-28 0 -28 26v420h-52z" />
    <glyph glyph-name="agrave" unicode="&#xe0;" horiz-adv-x="569" 
d="M369 597h-39q-16 0 -32 18l-124 129q-28 28 8 28h70q14 0 19 -6t12 -15l91 -128q19 -26 -5 -26zM384 166v183q0 43 -28 85t-82 42q-105 0 -105 -166v-84q-1 -75 27 -118t76 -43t80 37t32 64zM503 39q-1 -23 -5 -31t-19 -8h-63q-12 0 -18 6t-6 23v42q-16 -34 -61 -58
t-113 -24t-117 68q-50 67 -50 205t46 214t131 76q117 0 164 -83v44q0 25 18 25h64q20 0 24 -6t5 -24v-469z" />
    <glyph glyph-name="aacute" unicode="&#xe1;" horiz-adv-x="569" 
d="M278 597h-39q-23 0 -6 26l92 128q4 4 5 7q0 2 2 4t3 2t3 2q6 6 12 6h75q14 0 21 -4t-12 -24l-124 -129q-16 -18 -32 -18zM384 166v183q0 43 -28 85t-82 42q-105 0 -105 -166v-84q-1 -75 27 -118t76 -43t80 37t32 64zM503 39q-1 -23 -5 -31t-19 -8h-63q-12 0 -18 6t-6 23
v42q-16 -34 -61 -58t-113 -24t-117 68q-50 67 -50 205t46 214t131 76q117 0 164 -83v44q0 25 18 25h64q20 0 24 -6t5 -24v-469z" />
    <glyph glyph-name="acircumflex" unicode="&#xe2;" horiz-adv-x="569" 
d="M432 597h-37q-17 0 -26 12l-71 94l-71 -94q-10 -12 -26 -12h-38q-25 0 -5 26l91 128q15 21 28 21h40q20 0 30 -21l91 -128q20 -26 -6 -26zM384 166v183q0 43 -28 85t-82 42q-105 0 -105 -166v-84q-1 -75 27 -118t76 -43t80 37t32 64zM503 39q-1 -23 -5 -31t-19 -8h-63
q-12 0 -18 6t-6 23v42q-16 -34 -61 -58t-113 -24t-117 68q-50 67 -50 205t46 214t131 76q117 0 164 -83v44q0 25 18 25h64q20 0 24 -6t5 -24v-469z" />
    <glyph glyph-name="atilde" unicode="&#xe3;" horiz-adv-x="569" 
d="M352 618q-24 0 -68 28t-71 27q-26 0 -48 -38q-6 -11 -15 -6l-37 19q-9 4 1 26t40 52t58 30q30 0 78 -28t74 -29q26 0 49 41q5 11 14 6l40 -13q9 -4 4 -15q-50 -100 -119 -100zM384 166v183q0 43 -28 85t-82 42q-105 0 -105 -166v-84q-1 -75 27 -118t76 -43t80 37t32 64z
M503 39q-1 -23 -5 -31t-19 -8h-63q-12 0 -18 6t-6 23v42q-16 -34 -61 -58t-113 -24t-117 68q-50 67 -50 205t46 214t131 76q117 0 164 -83v44q0 25 18 25h64q20 0 24 -6t5 -24v-469z" />
    <glyph glyph-name="adieresis" unicode="&#xe4;" horiz-adv-x="569" 
d="M373 627q-32 0 -32 28v59q0 25 22 25h62q18 -1 23 -5t5 -18v-62q0 -27 -22 -27h-58zM238 652q0 -25 -23 -25h-62q-17 0 -22 4t-5 16v64q0 28 22 28h64q26 0 26 -28v-59zM384 166v183q0 43 -28 85t-82 42q-105 0 -105 -166v-84q-1 -75 27 -118t76 -43t80 37t32 64zM503 39
q-1 -23 -5 -31t-19 -8h-63q-12 0 -18 6t-6 23v42q-16 -34 -61 -58t-113 -24t-117 68q-50 67 -50 205t46 214t131 76q117 0 164 -83v44q0 25 18 25h64q20 0 24 -6t5 -24v-469z" />
    <glyph glyph-name="aring" unicode="&#xe5;" horiz-adv-x="569" 
d="M358 708q0 25 -18 45t-44 20t-43 -20q-18 -20 -18 -45q-1 -25 17 -45t44 -20t44 20t18 45zM416 708q0 -48 -36 -82t-84 -34t-84 34t-35 82q-1 48 35 82t84 34t84 -34t36 -82zM384 166v183q0 43 -28 85t-82 42q-105 0 -105 -166v-84q-1 -75 27 -118t76 -43t80 37t32 64z
M503 39q-1 -23 -5 -31t-19 -8h-63q-12 0 -18 6t-6 23v42q-16 -34 -61 -58t-113 -24t-117 68q-50 67 -50 205t46 214t131 76q117 0 164 -83v44q0 25 18 25h64q20 0 24 -6t5 -24v-469z" />
    <glyph glyph-name="ae" unicode="&#xe6;" horiz-adv-x="888" 
d="M715 309q11 0 11 19q-2 76 -28 114t-84 38q-112 0 -114 -151q0 -20 13 -20h202zM384 166v183q0 43 -28 85t-82 42q-105 0 -105 -166v-84q-1 -75 27 -118t76 -43t80 37t32 64zM835 281q1 -23 -7 -33t-34 -10h-297q0 -165 151 -165q82 0 148 22q28 11 28 -9v-50
q0 -12 -6 -18t-42 -18q-34 -12 -130 -11q-96 0 -154 31q-3 -20 -23 -20h-53q-12 0 -18 6t-6 23v42q-16 -34 -61 -58t-113 -24t-117 68q-50 67 -50 205t46 214t131 76q117 0 164 -83v44q0 25 18 25h54q25 0 28 -14q50 28 140 28t146 -54q57 -54 57 -157v-60z" />
    <glyph glyph-name="ccedilla" unicode="&#xe7;" horiz-adv-x="513" 
d="M312 -41q84 1 84 -79q0 -40 -32 -62t-87 -22q-54 0 -84 35q-5 6 1 16t16 16t12 2q16 -21 63 -21t47 38t-51 37q-7 1 -17 -1t-10 4v69q-102 9 -153 73t-51 202q0 286 251 286q128 0 183 -75q6 -9 -12 -27t-42 -29q-22 -11 -27 -2q-35 56 -98 56q-63 1 -98 -39t-35 -119
v-98q0 -77 36 -115t96 -38t98 63q18 19 68 -14q20 -13 15 -22q-52 -97 -173 -104v-30z" />
    <glyph glyph-name="egrave" unicode="&#xe8;" horiz-adv-x="555" 
d="M356 597h-39q-16 0 -32 18l-124 129q-28 28 8 28h70q14 0 19 -6t12 -15l91 -128q19 -26 -5 -26zM383 312q11 0 11 19q-2 75 -28 112t-84 37t-86 -42t-28 -106q0 -20 13 -20h202zM503 279q1 -23 -7 -33t-34 -10h-297q0 -163 151 -163q82 0 148 22q28 11 28 -9v-50
q0 -12 -6 -18q-34 -29 -192 -29q-244 -1 -243 281q0 282 232 282q104 0 162 -56t58 -155v-62z" />
    <glyph glyph-name="eacute" unicode="&#xe9;" horiz-adv-x="555" 
d="M262 597h-39q-23 0 -6 26l92 128q4 4 5 7q0 2 2 4t3 2t3 2q6 6 11 6h76q14 0 21 -4t-12 -24l-124 -129q-16 -18 -32 -18zM383 312q11 0 11 19q-2 75 -28 112t-84 37t-86 -42t-28 -106q0 -20 13 -20h202zM503 279q1 -23 -7 -33t-34 -10h-297q0 -163 151 -163q82 0 148 22
q28 11 28 -9v-50q0 -12 -6 -18q-34 -29 -192 -29q-244 -1 -243 281q0 282 232 282q104 0 162 -56t58 -155v-62z" />
    <glyph glyph-name="ecircumflex" unicode="&#xea;" horiz-adv-x="555" 
d="M422 597h-37q-17 0 -26 12l-71 94l-71 -94q-10 -12 -26 -12h-38q-25 0 -5 26l91 128q15 21 28 21h40q20 0 30 -21l91 -128q19 -26 -6 -26zM383 312q11 0 11 19q-2 75 -28 112t-84 37t-86 -42t-28 -106q0 -20 13 -20h202zM503 279q1 -23 -7 -33t-34 -10h-297
q0 -163 151 -163q82 0 148 22q28 11 28 -9v-50q0 -12 -6 -18q-34 -29 -192 -29q-244 -1 -243 281q0 282 232 282q104 0 162 -56t58 -155v-62z" />
    <glyph glyph-name="edieresis" unicode="&#xeb;" horiz-adv-x="555" 
d="M370 627q-32 0 -32 28v59q0 25 22 25h62q18 -1 23 -5t5 -18v-62q0 -27 -22 -27h-58zM235 652q0 -25 -23 -25h-62q-17 0 -22 4t-5 16v64q0 28 22 28h64q26 0 26 -28v-59zM383 312q11 0 11 19q-2 75 -28 112t-84 37t-86 -42t-28 -106q0 -20 13 -20h202zM503 279
q1 -23 -7 -33t-34 -10h-297q0 -163 151 -163q82 0 148 22q28 11 28 -9v-50q0 -12 -6 -18q-34 -29 -192 -29q-244 -1 -243 281q0 282 232 282q104 0 162 -56t58 -155v-62z" />
    <glyph glyph-name="igrave" unicode="&#xec;" horiz-adv-x="243" 
d="M153 597h-39q-16 0 -32 18l-124 129q-28 28 8 28h70q14 0 19 -6t12 -15l91 -128q19 -26 -5 -26zM66 508q0 30 24 30h63q17 0 21 -6t3 -24v-473q1 -25 -5 -30t-15 -5h-70q-13 0 -17 8t-4 27v473z" />
    <glyph glyph-name="iacute" unicode="&#xed;" horiz-adv-x="243" 
d="M130 597h-39q-23 0 -6 26l92 128q4 4 5 7q0 2 2 4t3 2t3 2q6 6 12 6h75q14 0 21 -4t-12 -24l-124 -129q-16 -18 -32 -18zM66 508q0 30 24 30h63q17 0 21 -6t3 -24v-473q1 -25 -5 -30t-15 -5h-70q-13 0 -17 8t-4 27v473z" />
    <glyph glyph-name="icircumflex" unicode="&#xee;" horiz-adv-x="243" 
d="M257 597h-37q-17 0 -26 12l-71 94l-71 -94q-10 -12 -26 -12h-38q-24 0 -5 26l91 128q15 21 28 21h40q20 0 30 -21l91 -128q19 -26 -6 -26zM66 508q0 30 24 30h63q17 0 21 -6t3 -24v-473q1 -25 -5 -30t-15 -5h-70q-13 0 -17 8t-4 27v473z" />
    <glyph glyph-name="idieresis" unicode="&#xef;" horiz-adv-x="243" 
d="M69 652q0 -25 -23 -25h-62q-17 0 -22 4t-5 16v64q0 28 22 28h64q26 0 26 -28v-59zM204 627q-32 0 -32 28v59q0 25 22 25h62q18 -1 23 -5t5 -18v-62q0 -27 -22 -27h-58zM66 508q0 30 24 30h63q17 0 21 -6t3 -24v-473q1 -25 -5 -30t-15 -5h-70q-13 0 -17 8t-4 27v473z" />
    <glyph glyph-name="eth" unicode="&#xf0;" horiz-adv-x="585" 
d="M420 231v91q0 143 -123 143q-55 1 -91 -39t-36 -109v-98q0 -77 36 -115t92 -38t89 45t33 120zM534 270q0 -137 -62 -209t-181 -72q-118 0 -179 62q-61 63 -61 207q1 144 67 214t183 70q69 0 106 -39q-26 60 -73 114l-32 -32q-10 -10 -14 -11t-12 7l-32 32q-8 8 1 17
l11 11l27 28q-16 15 -38 31t-6 31l42 49q8 8 14 3l9 -9t12 -10q7 -6 33 -29l23 23q15 14 19 16t10 -3l34 -35q6 -8 4 -12t-17 -20l-22 -21q72 -81 103 -179t31 -234z" />
    <glyph glyph-name="ntilde" unicode="&#xf1;" horiz-adv-x="562" 
d="M347 618q-25 0 -69 28t-70 27q-26 0 -48 -38q-6 -11 -15 -6l-37 19q-8 4 2 26t38 52q30 30 60 30t76 -28q48 -28 74 -29q26 0 50 41q5 11 14 6l40 -13q9 -4 4 -15q-50 -100 -119 -100zM66 507q0 31 24 31h64q24 0 24 -63q54 75 159 75q70 0 114 -41t44 -131v-332
q0 -46 -22 -46h-65q-26 0 -26 36v318q0 99 -94 99q-53 1 -82 -35t-29 -79v-301q1 -26 -5 -32t-15 -6h-63q-28 0 -28 37v470z" />
    <glyph glyph-name="ograve" unicode="&#xf2;" horiz-adv-x="585" 
d="M374 597h-39q-16 0 -32 18l-124 129q-28 28 8 28h70q14 0 19 -6t12 -15l91 -128q19 -26 -5 -26zM420 231v91q0 153 -123 153q-59 1 -93 -39t-34 -119v-98q0 -77 36 -115t92 -38t89 45t33 120zM301 552q233 0 233 -285q0 -134 -62 -206t-181 -72q-118 0 -179 62t-61 215
q0 286 250 286z" />
    <glyph glyph-name="oacute" unicode="&#xf3;" horiz-adv-x="585" 
d="M277 597h-39q-23 0 -6 26l92 128q4 4 5 7q1 2 3 4l2 2l2 2q6 6 12 6h76q14 0 21 -4t-12 -24l-124 -129q-16 -18 -32 -18zM420 231v91q0 153 -123 153q-59 1 -93 -39t-34 -119v-98q0 -77 36 -115t92 -38t89 45t33 120zM301 552q233 0 233 -285q0 -134 -62 -206t-181 -72
q-118 0 -179 62t-61 215q0 286 250 286z" />
    <glyph glyph-name="ocircumflex" unicode="&#xf4;" horiz-adv-x="585" 
d="M434 597h-37q-17 0 -26 12l-71 94l-71 -94q-10 -12 -26 -12h-38q-25 0 -5 26l91 128q15 21 28 21h40q20 0 30 -21l91 -128q19 -26 -6 -26zM420 231v91q0 153 -123 153q-59 1 -93 -39t-34 -119v-98q0 -77 36 -115t92 -38t89 45t33 120zM301 552q233 0 233 -285
q0 -134 -62 -206t-181 -72q-118 0 -179 62t-61 215q0 286 250 286z" />
    <glyph glyph-name="otilde" unicode="&#xf5;" horiz-adv-x="585" 
d="M359 618q-25 0 -69 28t-70 27q-26 0 -48 -38q-6 -11 -15 -6l-37 19q-8 4 2 26t38 52q30 30 60 30t76 -28q48 -28 74 -29q26 0 50 41q5 11 14 6l40 -13q9 -4 4 -15q-50 -100 -119 -100zM420 231v91q0 153 -123 153q-59 1 -93 -39t-34 -119v-98q0 -77 36 -115t92 -38t89 45
t33 120zM301 552q233 0 233 -285q0 -134 -62 -206t-181 -72q-118 0 -179 62t-61 215q0 286 250 286z" />
    <glyph glyph-name="odieresis" unicode="&#xf6;" horiz-adv-x="585" 
d="M247 652q0 -25 -23 -25h-62q-17 0 -22 4t-5 16v64q0 28 22 28h64q26 0 26 -28v-59zM382 627q-32 0 -32 28v59q0 25 22 25h62q18 -1 23 -5t5 -18v-62q0 -27 -22 -27h-58zM420 231v91q0 153 -123 153q-59 1 -93 -39t-34 -119v-98q0 -77 36 -115t92 -38t89 45t33 120z
M301 552q233 0 233 -285q0 -134 -62 -206t-181 -72q-118 0 -179 62t-61 215q0 286 250 286z" />
    <glyph glyph-name="divide" unicode="&#xf7;" 
d="M268 305h-96l49 164zM245 539h-40q-12 0 -18 -16l-99 -327q-5 -16 3 -16h35q7 0 9 2t4 11l22 75h119l23 -75q2 -12 5 -12q3 -1 6 -1h39q8 0 10 2t0 14l-100 327q-4 16 -18 16zM591 539q-8 0 -11 -13l-82 -276l-83 276q-7 12 -12 13h-38q-13 0 -12 -5t2 -11l101 -331
q3 -12 15 -12h45q11 0 14 11l103 337q4 11 -11 11h-31zM719 72h-711v564h711v-564z" />
    <glyph glyph-name="oslash" unicode="&#xf8;" horiz-adv-x="585" 
d="M420 231v91q0 29 -4 50q-208 -270 -209 -270q33 -36 90 -36t90 45t33 120zM295 475q-57 1 -91 -39t-34 -119v-98q0 -23 3 -44l208 270q-30 30 -86 30zM537 555q16 0 10 -12q-4 -6 -13 -18l-46 -59q46 -69 46 -201t-62 -204t-166 -72t-159 34q-17 -23 -36 -23h-44
q-15 0 -17 6t13 26l32 41q-44 65 -44 193q0 286 250 286q83 0 136 -34l7 9q13 18 21 23t26 5h46z" />
    <glyph glyph-name="ugrave" unicode="&#xf9;" horiz-adv-x="562" 
d="M349 597h-39q-16 0 -32 18l-124 129q-28 28 8 28h70q14 0 19 -6t12 -15l91 -128q19 -26 -5 -26zM66 503q0 35 23 35h65q26 0 26 -36v-318q0 -99 93 -99q52 0 82 36t30 78v301q-1 26 5 32t15 6h63q16 0 22 -8t5 -29v-470q-1 -17 -5 -24t-18 -7h-64q-24 0 -24 62
q-62 -72 -160 -72q-66 0 -112 42t-46 128v343z" />
    <glyph glyph-name="uacute" unicode="&#xfa;" horiz-adv-x="562" 
d="M269 597h-39q-23 0 -6 26l92 128q4 4 5 7q1 2 3 4l2 2l2 2q6 6 12 6h76q14 0 21 -4t-12 -24l-124 -129q-16 -18 -32 -18zM66 503q0 35 23 35h65q26 0 26 -36v-318q0 -99 93 -99q52 0 82 36t30 78v301q-1 26 5 32t15 6h63q16 0 22 -8t5 -29v-470q-1 -17 -5 -24t-18 -7h-64
q-24 0 -24 62q-62 -72 -160 -72q-66 0 -112 42t-46 128v343z" />
    <glyph glyph-name="ucircumflex" unicode="&#xfb;" horiz-adv-x="562" 
d="M416 597h-37q-17 0 -26 12l-71 94l-71 -94q-10 -12 -26 -12h-38q-25 0 -5 26l91 128q15 21 28 21h40q20 0 30 -21l91 -128q19 -26 -6 -26zM66 503q0 35 23 35h65q26 0 26 -36v-318q0 -99 93 -99q52 0 82 36t30 78v301q-1 26 5 32t15 6h63q16 0 22 -8t5 -29v-470
q-1 -17 -5 -24t-18 -7h-64q-24 0 -24 62q-62 -72 -160 -72q-66 0 -112 42t-46 128v343z" />
    <glyph glyph-name="udieresis" unicode="&#xfc;" horiz-adv-x="562" 
d="M230 652q0 -25 -23 -25h-62q-17 0 -22 4t-5 16v64q0 28 22 28h64q26 0 26 -28v-59zM365 627q-32 0 -32 28v59q0 25 22 25h62q18 -1 23 -5t5 -18v-62q0 -27 -22 -27h-58zM66 503q0 35 23 35h65q26 0 26 -36v-318q0 -99 93 -99q52 0 82 36t30 78v301q-1 26 5 32t15 6h63
q16 0 22 -8t5 -29v-470q-1 -17 -5 -24t-18 -7h-64q-24 0 -24 62q-62 -72 -160 -72q-66 0 -112 42t-46 128v343z" />
    <glyph glyph-name="yacute" unicode="&#xfd;" horiz-adv-x="529" 
d="M271 597h-39q-23 0 -6 26l92 128q4 4 5 7q1 2 3 4l2 2l2 2q5 5 12 6h76q14 0 21 -4t-12 -24l-124 -129q-16 -18 -32 -18zM213 -200h-53q-24 0 -15 23l63 177l-185 516q-9 22 20 22h71q19 0 26 -24l129 -368l131 368q10 24 26 24h60q15 0 18 -6t-3 -20l-255 -687
q-11 -25 -33 -25z" />
    <glyph glyph-name="thorn" unicode="&#xfe;" horiz-adv-x="571" 
d="M295 66q107 0 107 157v84q0 77 -28 123t-80 46t-79 -40q-28 -40 -28 -85v-194q0 -27 31 -59t77 -32zM520 262q0 -274 -192 -273q-96 0 -149 67v-232q0 -33 -18 -33h-66q-17 1 -22 7t-5 26v883q0 24 7 30t19 6h61q24 0 24 -28v-242q56 79 168 79q81 0 127 -76t46 -214z
" />
    <glyph glyph-name="ydieresis" unicode="&#xff;" horiz-adv-x="529" 
d="M216 652q0 -25 -23 -25h-62q-17 0 -22 4t-5 16v64q0 28 22 28h64q26 0 26 -28v-59zM351 627q-32 0 -32 28v59q0 25 22 25h62q18 -1 23 -5t5 -18v-62q0 -27 -22 -27h-58zM213 -200h-53q-24 0 -15 23l63 177l-185 516q-9 22 20 22h71q19 0 26 -24l129 -368l131 368
q10 24 26 24h60q15 0 18 -6t-3 -20l-255 -687q-11 -25 -33 -25z" />
    <glyph glyph-name="dotlessi" unicode="&#x131;" horiz-adv-x="243" 
d="M66 508q0 30 24 30h63q17 0 21 -6t3 -24v-473q1 -25 -5 -30t-15 -5h-70q-13 0 -17 8t-4 27v473z" />
    <glyph glyph-name="Lslash" unicode="&#x141;" horiz-adv-x="512" 
d="M474 91q19 0 19 -10v-62q-1 -13 -5 -16t-19 -3h-365q-14 0 -18 7t-3 28v240l-16 -9q-24 -14 -34 4l-25 42q-7 16 -5 20t10 10t9 6q2 0 4 2q45 27 57 32v324q1 14 5 20t17 6h72q15 0 21 -6t6 -27v-247l50 28q27 17 32 13t8 -10l26 -42q7 -13 3 -21t-24 -20l-95 -55v-235
q0 -19 23 -19h247z" />
    <glyph glyph-name="lslash" unicode="&#x142;" horiz-adv-x="243" 
d="M66 716q0 27 24 27h63q17 1 21 -5t3 -25v-261l30 17q27 17 32 13t8 -10l26 -42q7 -13 3 -21t-52 -35t-47 -28v-311q1 -25 -5 -30t-15 -5h-66q-17 0 -21 6t-4 27v251l-32 -18q-24 -14 -34 4l-25 42q-7 16 -5 20t10 10t9 6t2 1l75 42v325z" />
    <glyph glyph-name="OE" unicode="&#x152;" horiz-adv-x="964" 
d="M350 645q-86 1 -122 -39t-36 -122v-261q0 -69 46 -103t108 -34t100 24q37 24 47 88v333q-17 114 -143 114zM74 492q0 251 248 251q118 0 172 -40q0 29 18 29h362q18 0 22 -2t5 -14v-59q0 -12 -14 -14t-32 -2h-222q-26 0 -26 -16v-173q0 -23 22 -23h198q20 0 26 -4t4 -14
l-7 -56q0 -3 -2 -5t-2 -5q-1 -1 -4 -3q-2 -2 -4 -3t-6 -1t-5 -2h-50h-140q-28 0 -28 -23v-196q-1 -19 13 -21q4 0 16 -1h242q37 0 37 -19v-58q0 -18 -21 -18h-380q-20 0 -20 38q-47 -51 -148 -51q-198 0 -254 116q-20 40 -20 94v295z" />
    <glyph glyph-name="oe" unicode="&#x153;" horiz-adv-x="921" 
d="M750 309q11 0 11 19q-2 76 -28 114t-84 38q-59 0 -89 -42t-32 -109q0 -20 13 -20h209zM420 231v91q0 153 -123 153q-59 1 -93 -39t-34 -119v-98q0 -77 36 -115t92 -38t89 45t33 120zM523 238q0 -165 164 -165q78 0 144 22q28 11 28 -9v-50q-1 -12 -7 -18
q-34 -29 -181 -29q-148 0 -196 101q-54 -101 -178 -101t-185 62t-61 215q0 286 250 286q132 0 176 -94q51 94 165 94q228 0 228 -211v-60q0 -23 -8 -33t-33 -10h-306z" />
    <glyph glyph-name="Scaron" unicode="&#x160;" horiz-adv-x="606" 
d="M334 777h-40q-20 0 -30 21l-91 128q-19 26 6 26h37q17 0 26 -12l71 -94l71 94q9 12 26 12h38q24 0 5 -26l-91 -128q-15 -21 -28 -21zM342 649q-143 0 -143 -95q-1 -43 31 -70q32 -26 122 -62q194 -77 194 -233t-176 -193q-46 -10 -101 -10q-154 0 -213 41q-13 18 -1 59
q12 40 17 38t21 -8q73 -30 160 -29q165 0 165 103q0 48 -30 78t-94 56q-105 42 -162 89q-57 48 -57 136t66 141q67 53 185 53t181 -22q9 -7 8 -29t-11 -45t-21 -20q-71 22 -141 22z" />
    <glyph glyph-name="scaron" unicode="&#x161;" horiz-adv-x="462" 
d="M249 597h-40q-20 0 -30 21l-91 128q-19 26 6 26h37q17 0 26 -12l71 -94l71 94q9 12 26 12h38q25 0 5 -26l-91 -128q-15 -21 -28 -21zM415 138q0 -149 -192 -149q-114 0 -172 32q-5 3 -5 23t4 38q6 18 15 15l13 -5q13 -5 21 -7q8 -1 29 -7t70 -6q102 0 102 70
q0 56 -101 108q-71 36 -107 70t-37 97q1 62 57 99t146 37t127 -17q9 -4 -1 -40t-23 -34q-54 16 -104 16q-90 0 -90 -65q0 -21 24 -41t87 -52q63 -34 100 -76t37 -106z" />
    <glyph glyph-name="Ydieresis" unicode="&#x178;" horiz-adv-x="629" 
d="M275 832q0 -25 -23 -25h-62q-17 0 -22 4t-5 16v64q0 28 22 28h64q26 0 26 -28v-59zM410 807q-32 0 -32 28v59q0 25 22 25h62q18 -1 23 -5t5 -18v-62q0 -27 -22 -27h-58zM274 0q-19 0 -19 20v282l-223 410q-8 14 -4 17t18 3h87q15 0 28 -21l165 -307l163 308q3 3 5 7
q2 5 4 7t4 2t4 2t6 2h69q16 0 19 -5q4 -5 -8 -26q-107 -195 -184 -341l-32 -59v-279q0 -22 -23 -22h-79z" />
    <glyph glyph-name="Zcaron" unicode="&#x17d;" horiz-adv-x="599" 
d="M337 777h-40q-20 0 -30 21l-91 128q-19 26 6 26h37q17 0 26 -12l71 -94l71 94q9 12 26 12h38q25 0 5 -26l-91 -128q-15 -21 -28 -21zM82 732h446q23 0 23 -12v-30q0 -8 -21 -46l-329 -550h321q22 0 29 -3t7 -14v-58q0 -11 -5 -15t-22 -4h-471q-17 0 -17 12v30q0 8 18 42
l332 554h-301q-22 0 -30 5t-8 19l3 52q0 18 25 18z" />
    <glyph glyph-name="zcaron" unicode="&#x17e;" horiz-adv-x="474" 
d="M272 597h-40q-20 0 -30 21l-91 128q-19 26 6 26h37q17 0 26 -12l71 -94l71 94q9 12 26 12h38q24 0 5 -26l-91 -128q-15 -21 -28 -21zM40 518q0 20 21 20h342q27 0 33 -8t-5 -27l-255 -427h240q19 0 22 -6q4 -6 4 -16v-33q0 -13 -4 -17t-20 -4h-351q-63 0 -27 48l245 414
h-221q-16 0 -20 3t-4 18v35z" />
    <glyph glyph-name="florin" unicode="&#x192;" horiz-adv-x="377" 
d="M260 661q-48 1 -47 -69q0 -38 28 -69h66q24 0 24 -20v-35q0 -22 -24 -22h-64v-439q0 -131 -136 -131q-60 0 -90 13q-9 3 -2 40t14 35q31 -7 51 -7q20 1 33 17q14 16 14 45v427h-52q-22 0 -22 21v34q0 21 16 21h50q-19 38 -19 92t32 92t94 37q60 0 97 -13q7 -3 1 -40
t-14 -36q-30 7 -50 7z" />
    <glyph glyph-name="circumflex" unicode="&#x2c6;" horiz-adv-x="474" 
d="M378 597h-37q-17 0 -26 12l-71 94l-71 -94q-10 -12 -26 -12h-38q-25 0 -5 26l91 128q15 21 28 21h40q20 0 30 -21l91 -128q20 -26 -6 -26z" />
    <glyph glyph-name="caron" unicode="&#x2c7;" horiz-adv-x="474" 
d="M266 597h-40q-20 0 -30 21l-91 128q-19 26 6 26h37q17 0 26 -12l71 -94l71 94q9 12 26 12h38q24 0 5 -26l-91 -128q-15 -21 -28 -21z" />
    <glyph glyph-name="breve" unicode="&#x2d8;" horiz-adv-x="474" 
d="M244 610q-102 0 -141 139q-7 23 13 23h34q16 0 20 -13q23 -85 75 -85q29 0 46 22t29 63q5 13 20 13h36q18 0 10 -25q-40 -137 -142 -137z" />
    <glyph glyph-name="dotaccent" unicode="&#x2d9;" horiz-adv-x="474" 
d="M220 638q-30 0 -30 27v44q0 29 22 29h65q17 0 21 -4t5 -19v-52q0 -25 -21 -25h-62z" />
    <glyph glyph-name="ring" unicode="&#x2da;" horiz-adv-x="474" 
d="M312 708q0 25 -18 45t-44 20t-43 -20q-18 -20 -18 -45q-1 -25 17 -45t44 -20t44 20t18 45zM370 708q0 -48 -36 -82t-84 -34t-84 34t-35 82q-1 48 35 82t84 34t84 -34t36 -82z" />
    <glyph glyph-name="ogonek" unicode="&#x2db;" horiz-adv-x="474" 
d="M250 -204q-111 0 -111 88q0 64 110 132h58q-37 -26 -69 -64t-33 -67q0 -38 41 -38q40 0 50 11t19 5t15 -16t0 -16q-30 -35 -80 -35z" />
    <glyph glyph-name="tilde" unicode="&#x2dc;" horiz-adv-x="474" 
d="M302 618q-24 0 -68 28t-71 27q-26 0 -48 -38q-6 -11 -15 -6l-37 19q-9 4 1 26t40 52t58 30q30 0 78 -28t74 -29q26 0 49 41q5 11 14 6l40 -13q9 -4 4 -15q-50 -100 -119 -100z" />
    <glyph glyph-name="hungarumlaut" unicode="&#x2dd;" horiz-adv-x="474" 
d="M103 597h-29q-21 0 -6 26l85 128q13 21 31 21h59q14 0 21 -4t-12 -24l-117 -129q-16 -18 -32 -18zM275 597h-29q-21 0 -6 26l85 128q13 21 30 21h60q14 0 21 -4t-12 -24l-117 -129q-18 -18 -32 -18z" />
    <glyph glyph-name="Delta" unicode="&#x394;" 
d="M268 305h-96l49 164zM245 539h-40q-12 0 -18 -16l-99 -327q-5 -16 3 -16h35q7 0 9 2t4 11l22 75h119l23 -75q2 -12 5 -12q3 -1 6 -1h39q8 0 10 2t0 14l-100 327q-4 16 -18 16zM591 539q-8 0 -11 -13l-82 -276l-83 276q-7 12 -12 13h-38q-13 0 -12 -5t2 -11l101 -331
q3 -12 15 -12h45q11 0 14 11l103 337q4 11 -11 11h-31zM719 72h-711v564h711v-564z" />
    <glyph glyph-name="Delta" unicode="&#x2206;" 
d="M268 305h-96l49 164zM245 539h-40q-12 0 -18 -16l-99 -327q-5 -16 3 -16h35q7 0 9 2t4 11l22 75h119l23 -75q2 -12 5 -12q3 -1 6 -1h39q8 0 10 2t0 14l-100 327q-4 16 -18 16zM591 539q-8 0 -11 -13l-82 -276l-83 276q-7 12 -12 13h-38q-13 0 -12 -5t2 -11l101 -331
q3 -12 15 -12h45q11 0 14 11l103 337q4 11 -11 11h-31zM719 72h-711v564h711v-564z" />
    <glyph glyph-name="Omega" unicode="&#x3a9;" 
d="M268 305h-96l49 164zM245 539h-40q-12 0 -18 -16l-99 -327q-5 -16 3 -16h35q7 0 9 2t4 11l22 75h119l23 -75q2 -12 5 -12q3 -1 6 -1h39q8 0 10 2t0 14l-100 327q-4 16 -18 16zM591 539q-8 0 -11 -13l-82 -276l-83 276q-7 12 -12 13h-38q-13 0 -12 -5t2 -11l101 -331
q3 -12 15 -12h45q11 0 14 11l103 337q4 11 -11 11h-31zM719 72h-711v564h711v-564z" />
    <glyph glyph-name="Omega" unicode="&#x2126;" 
d="M268 305h-96l49 164zM245 539h-40q-12 0 -18 -16l-99 -327q-5 -16 3 -16h35q7 0 9 2t4 11l22 75h119l23 -75q2 -12 5 -12q3 -1 6 -1h39q8 0 10 2t0 14l-100 327q-4 16 -18 16zM591 539q-8 0 -11 -13l-82 -276l-83 276q-7 12 -12 13h-38q-13 0 -12 -5t2 -11l101 -331
q3 -12 15 -12h45q11 0 14 11l103 337q4 11 -11 11h-31zM719 72h-711v564h711v-564z" />
    <glyph glyph-name="pi" unicode="&#x3c0;" horiz-adv-x="760" 
d="M406 368q53 0 53 60t-65 61h-46q-9 1 -9 -9v-103q0 -9 10 -9h57zM397 541q131 0 131 -115q0 -55 -34 -84t-89 -29h-60q-6 0 -6 -9v-113q0 -16 -12 -16h-46q-9 0 -9 9v344q0 13 12 13h113zM681 358q0 130 -88 218t-213 88t-213 -88t-88 -218t88 -219t213 -89t213 89
t88 219zM735 357q1 -149 -103 -253t-252 -104t-252 104t-103 253q-1 149 103 253t252 104t252 -104t103 -253z" />
    <glyph glyph-name="endash" unicode="&#x2013;" horiz-adv-x="691" 
d="M79 257q-27 0 -27 21v49q0 17 6 20t24 3h525q27 0 32 -5t5 -14v-49q0 -16 -7 -20t-30 -5h-528z" />
    <glyph glyph-name="emdash" unicode="&#x2014;" horiz-adv-x="1062" 
d="M79 257q-27 0 -27 21v49q0 17 6 20t24 3h893q27 0 32 -5q6 -5 6 -14v-49q1 -16 -7 -20t-31 -5h-896z" />
    <glyph glyph-name="quoteleft" unicode="&#x2018;" horiz-adv-x="249" 
d="M149 529h-76q-27 0 -22 22q25 118 127 187q13 9 26 0t8 -20q-39 -85 -44 -165q-2 -24 -19 -24z" />
    <glyph glyph-name="quoteright" unicode="&#x2019;" horiz-adv-x="249" 
d="M106 737h76q27 0 22 -22q-25 -118 -127 -187q-13 -9 -26 0t-8 20q39 85 44 165q1 24 19 24z" />
    <glyph glyph-name="quotesinglbase" unicode="&#x201a;" horiz-adv-x="249" 
d="M101 111h76q27 0 22 -22q-25 -118 -127 -187q-13 -9 -26 0t-8 20q39 85 44 165q2 24 19 24z" />
    <glyph glyph-name="quotedblleft" unicode="&#x201c;" horiz-adv-x="442" 
d="M131 529h-76q-27 0 -22 22q25 118 127 187q13 9 26 0t8 -20q-39 -85 -44 -165q-2 -24 -19 -24zM326 529h-76q-27 0 -22 22q25 118 127 187q13 9 26 0t8 -20q-39 -85 -44 -165q-1 -24 -19 -24z" />
    <glyph glyph-name="quotedblright" unicode="&#x201d;" horiz-adv-x="442" 
d="M116 737h76q27 0 22 -22q-25 -118 -127 -187q-13 -9 -26 0t-8 20q39 85 44 165q1 24 19 24zM312 737h76q27 0 22 -22q-25 -118 -127 -187q-13 -9 -26 0t-8 20q39 85 44 165q1 24 19 24z" />
    <glyph glyph-name="quotedblbase" unicode="&#x201e;" horiz-adv-x="442" 
d="M105 111h76q27 0 22 -22q-25 -118 -127 -187q-13 -9 -26 0t-8 20q39 85 44 165q2 24 19 24zM300 111h76q27 0 22 -22q-25 -118 -127 -187q-13 -9 -26 0t-8 20q39 85 44 165q1 24 19 24z" />
    <glyph glyph-name="dagger" unicode="&#x2020;" horiz-adv-x="526" 
d="M218 702q0 30 24 30h49q14 0 17 -6t3 -24v-131h106q26 0 31 -5q4 -5 4 -14v-42q0 -14 -8 -18t-29 -4h-104v-265q1 -19 -3 -24t-16 -5h-49q-15 0 -20 6t-5 25v263h-112q-14 0 -20 4t-6 16v40q0 17 6 20t25 3h107v131z" />
    <glyph glyph-name="daggerdbl" unicode="&#x2021;" horiz-adv-x="526" 
d="M218 702q0 30 24 30h49q14 0 17 -6t3 -24v-117h106q25 1 30 -5t5 -15v-41q0 -15 -8 -19t-29 -4h-104v-71h109q18 0 24 -4t5 -18v-39q-1 -16 -7 -19t-27 -3h-104v-124q1 -19 -3 -24t-16 -5h-49q-15 0 -20 6t-5 25v122h-109q-31 0 -31 17v42q0 16 6 20t27 4h107v71h-112
q-26 0 -26 21v39q0 17 6 21t25 3h107v117z" />
    <glyph glyph-name="bullet" unicode="&#x2022;" horiz-adv-x="446" 
d="M390 322q0 -67 -48 -115t-115 -48t-115 48t-48 115t48 115t115 48t115 -48t48 -115z" />
    <glyph glyph-name="ellipsis" unicode="&#x2026;" horiz-adv-x="726" 
d="M543 86q0 27 20 27h82q19 0 25 -5t6 -18v-54q0 -36 -24 -36h-77q-32 0 -32 32v54zM302 86q0 27 20 27h82q20 0 26 -5t5 -18v-54q0 -36 -24 -36h-77q-32 0 -32 32v54zM57 86q0 27 20 27h82q19 0 25 -5t6 -18v-54q0 -36 -24 -36h-77q-32 0 -32 32v54z" />
    <glyph glyph-name="perthousand" unicode="&#x2030;" horiz-adv-x="1099" 
d="M245 491v99q0 76 -56 76q-37 0 -51 -20t-14 -60v-93q0 -27 16 -43t46 -17t44 17t15 41zM640 120v99q0 75 -56 75q-37 0 -51 -20t-14 -59v-93q1 -28 17 -44t45 -16t44 18t15 40zM978 120v99q0 75 -56 75q-37 0 -51 -20t-14 -59v-93q1 -28 17 -44t45 -16t44 18t15 40z
M324 485q0 -65 -40 -95t-102 -30t-100 32t-39 93v117q0 68 39 104q38 36 100 36t102 -32t40 -102v-123zM223 0h-44q-17 0 -20 6t6 26l349 679q15 28 40 28h46q14 -1 14 -7t-9 -23l-350 -681q-9 -18 -15 -23t-17 -5zM718 114q0 -125 -141 -125q-62 -1 -101 31t-39 93v117
q0 69 39 105t101 36q141 0 141 -134v-123zM1056 114q0 -125 -141 -125q-63 -1 -101 31t-38 93v117q0 69 38 105t101 36q141 0 141 -134v-123z" />
    <glyph glyph-name="guilsinglleft" unicode="&#x2039;" horiz-adv-x="349" 
d="M277 144q12 -18 -3 -25l-50 -28q-15 -7 -27 12l-152 217l148 218q14 21 28 12l50 -28q13 -9 0 -29l-121 -173z" />
    <glyph glyph-name="guilsinglright" unicode="&#x203a;" horiz-adv-x="349" 
d="M301 321l-152 -220q-12 -17 -26 -10l-50 27q-16 7 -4 26l128 177l-121 172q-14 19 0 27l49 30q15 10 30 -13z" />
    <glyph glyph-name="fraction" unicode="&#x2044;" horiz-adv-x="377" 
d="M85 0h-44q-15 0 -19 6t4 26l261 679q6 17 13 23t25 5h46q15 1 13 -11q-1 -6 -6 -19l-262 -681q-7 -18 -13 -23t-18 -5z" />
    <glyph glyph-name="Euro" unicode="&#x20ac;" horiz-adv-x="605" 
d="M112 389h-22q-28 0 -28 21v38q0 16 6 20t24 4h20v23q0 138 68 193t194 55t179 -42q15 -15 -25 -75q-5 -8 -8 -7t-20 8t-21 8t-19 5q-34 9 -103 9t-97 -38t-27 -131v-8h146q27 0 32 -5q6 -5 6 -14v-39q0 -16 -7 -20t-30 -5h-147v-63h146q27 0 32 -5q6 -5 6 -14v-39
q0 -16 -7 -20t-30 -5h-147v-34q0 -131 139 -131q70 0 136 29q14 5 19 7t17 -34t4 -56q-61 -37 -169 -37t-188 45q-79 45 -79 177v34h-22q-28 0 -28 21v38q0 16 6 20t24 4h20v63z" />
    <glyph glyph-name="trademark" unicode="&#x2122;" horiz-adv-x="619" 
d="M245 690q0 -7 -10 -7h-58q-11 0 -11 -11v-222q0 -18 -13 -18h-41q-8 0 -10 3t-3 15v222q0 11 -12 11h-67q-10 0 -10 7v35q0 7 14 7h207q14 0 14 -5v-37zM583 447q0 -15 -12 -15h-37q-16 0 -16 18v185q0 6 -1 7l-67 -128q-7 -12 -13 -12h-11q-7 0 -14 14l-57 117
q-8 11 -8 -1v-186q0 -14 -12 -14h-36q-16 0 -16 18v266q0 16 13 16h44q12 0 17 -8l73 -138q3 -6 7 -2l72 139q5 9 16 9h47q8 0 10 -4t1 -13v-268z" />
    <glyph glyph-name="partialdiff" unicode="&#x2202;" 
d="M268 305h-96l49 164zM245 539h-40q-12 0 -18 -16l-99 -327q-5 -16 3 -16h35q7 0 9 2t4 11l22 75h119l23 -75q2 -12 5 -12q3 -1 6 -1h39q8 0 10 2t0 14l-100 327q-4 16 -18 16zM591 539q-8 0 -11 -13l-82 -276l-83 276q-7 12 -12 13h-38q-13 0 -12 -5t2 -11l101 -331
q3 -12 15 -12h45q11 0 14 11l103 337q4 11 -11 11h-31zM719 72h-711v564h711v-564z" />
    <glyph glyph-name="product" unicode="&#x220f;" 
d="M268 305h-96l49 164zM245 539h-40q-12 0 -18 -16l-99 -327q-5 -16 3 -16h35q7 0 9 2t4 11l22 75h119l23 -75q2 -12 5 -12q3 -1 6 -1h39q8 0 10 2t0 14l-100 327q-4 16 -18 16zM591 539q-8 0 -11 -13l-82 -276l-83 276q-7 12 -12 13h-38q-13 0 -12 -5t2 -11l101 -331
q3 -12 15 -12h45q11 0 14 11l103 337q4 11 -11 11h-31zM719 72h-711v564h711v-564z" />
    <glyph glyph-name="summation" unicode="&#x2211;" 
d="M268 305h-96l49 164zM245 539h-40q-12 0 -18 -16l-99 -327q-5 -16 3 -16h35q7 0 9 2t4 11l22 75h119l23 -75q2 -12 5 -12q3 -1 6 -1h39q8 0 10 2t0 14l-100 327q-4 16 -18 16zM591 539q-8 0 -11 -13l-82 -276l-83 276q-7 12 -12 13h-38q-13 0 -12 -5t2 -11l101 -331
q3 -12 15 -12h45q11 0 14 11l103 337q4 11 -11 11h-31zM719 72h-711v564h711v-564z" />
    <glyph glyph-name="minus" unicode="&#x2212;" 
d="M268 305h-96l49 164zM245 539h-40q-12 0 -18 -16l-99 -327q-5 -16 3 -16h35q7 0 9 2t4 11l22 75h119l23 -75q2 -12 5 -12q3 -1 6 -1h39q8 0 10 2t0 14l-100 327q-4 16 -18 16zM591 539q-8 0 -11 -13l-82 -276l-83 276q-7 12 -12 13h-38q-13 0 -12 -5t2 -11l101 -331
q3 -12 15 -12h45q11 0 14 11l103 337q4 11 -11 11h-31zM719 72h-711v564h711v-564z" />
    <glyph glyph-name="radical" unicode="&#x221a;" horiz-adv-x="515" 
d="M255 0h-49q-24 0 -35 28l-113 339q-9 23 19 23h51q18 0 26 -24l81 -240l150 569q2 9 10 17t16 8h50q15 0 18 -6t-3 -20l-185 -664q-7 -18 -15 -24t-21 -6z" />
    <glyph glyph-name="infinity" unicode="&#x221e;" horiz-adv-x="882" 
d="M796 732q20 0 20 -22v-46q0 -18 -4 -24t-16 -6h-66q-16 0 -20 6t-4 27v36q0 17 5 23t22 6h63zM197 606q0 -38 28 -68h176q-17 34 -17 84t32 86q32 35 92 35t95 -13q7 -3 1 -40t-14 -36q-29 7 -47 7q-50 0 -50 -55q0 -36 28 -68h271q16 0 20 -6t4 -24v-473q0 -25 -5 -30
t-15 -5h-70q-12 0 -16 7t-4 28v426h-183v-428q0 -33 -23 -33h-61q-28 0 -28 26v435h-184v-428q0 -33 -23 -33h-61q-28 0 -28 26v435h-52q-13 0 -17 4t-5 16v35q0 22 16 22h48q-17 34 -17 84t32 86q32 35 92 35t95 -13q7 -3 1 -40t-14 -36q-29 7 -47 7q-50 0 -50 -55z" />
    <glyph glyph-name="integral" unicode="&#x222b;" 
d="M268 305h-96l49 164zM245 539h-40q-12 0 -18 -16l-99 -327q-5 -16 3 -16h35q7 0 9 2t4 11l22 75h119l23 -75q2 -12 5 -12q3 -1 6 -1h39q8 0 10 2t0 14l-100 327q-4 16 -18 16zM591 539q-8 0 -11 -13l-82 -276l-83 276q-7 12 -12 13h-38q-13 0 -12 -5t2 -11l101 -331
q3 -12 15 -12h45q11 0 14 11l103 337q4 11 -11 11h-31zM719 72h-711v564h711v-564z" />
    <glyph glyph-name="approxequal" unicode="&#x2248;" 
d="M268 305h-96l49 164zM245 539h-40q-12 0 -18 -16l-99 -327q-5 -16 3 -16h35q7 0 9 2t4 11l22 75h119l23 -75q2 -12 5 -12q3 -1 6 -1h39q8 0 10 2t0 14l-100 327q-4 16 -18 16zM591 539q-8 0 -11 -13l-82 -276l-83 276q-7 12 -12 13h-38q-13 0 -12 -5t2 -11l101 -331
q3 -12 15 -12h45q11 0 14 11l103 337q4 11 -11 11h-31zM719 72h-711v564h711v-564z" />
    <glyph glyph-name="notequal" unicode="&#x2260;" horiz-adv-x="638" 
d="M63 446q-22 0 -22 21v34q0 21 16 21h50q-19 40 -19 93t32 91t92 37q60 0 95 -13q7 -3 1 -40t-14 -36q-28 7 -48 7t-34 -16t-15 -53q0 -37 28 -69h178q-19 41 -19 93t32 90t92 37q60 0 95 -13q7 -3 1 -40t-14 -36q-28 7 -48 7t-34 -16t-15 -53q0 -37 28 -69h67
q15 -1 19 -5t4 -15v-35q0 -22 -23 -22h-65v-413q0 -33 -23 -33h-61q-28 0 -28 26v420h-184v-413q0 -33 -23 -33h-61q-28 0 -28 26v420h-52z" />
    <glyph glyph-name="lessequal" unicode="&#x2264;" 
d="M268 305h-96l49 164zM245 539h-40q-12 0 -18 -16l-99 -327q-5 -16 3 -16h35q7 0 9 2t4 11l22 75h119l23 -75q2 -12 5 -12q3 -1 6 -1h39q8 0 10 2t0 14l-100 327q-4 16 -18 16zM591 539q-8 0 -11 -13l-82 -276l-83 276q-7 12 -12 13h-38q-13 0 -12 -5t2 -11l101 -331
q3 -12 15 -12h45q11 0 14 11l103 337q4 11 -11 11h-31zM719 72h-711v564h711v-564z" />
    <glyph glyph-name="greaterequal" unicode="&#x2265;" 
d="M268 305h-96l49 164zM245 539h-40q-12 0 -18 -16l-99 -327q-5 -16 3 -16h35q7 0 9 2t4 11l22 75h119l23 -75q2 -12 5 -12q3 -1 6 -1h39q8 0 10 2t0 14l-100 327q-4 16 -18 16zM591 539q-8 0 -11 -13l-82 -276l-83 276q-7 12 -12 13h-38q-13 0 -12 -5t2 -11l101 -331
q3 -12 15 -12h45q11 0 14 11l103 337q4 11 -11 11h-31zM719 72h-711v564h711v-564z" />
    <glyph glyph-name="lozenge" unicode="&#x25ca;" 
d="M268 305h-96l49 164zM245 539h-40q-12 0 -18 -16l-99 -327q-5 -16 3 -16h35q7 0 9 2t4 11l22 75h119l23 -75q2 -12 5 -12q3 -1 6 -1h39q8 0 10 2t0 14l-100 327q-4 16 -18 16zM591 539q-8 0 -11 -13l-82 -276l-83 276q-7 12 -12 13h-38q-13 0 -12 -5t2 -11l101 -331
q3 -12 15 -12h45q11 0 14 11l103 337q4 11 -11 11h-31zM719 72h-711v564h711v-564z" />
    <glyph glyph-name="NUL" unicode="&#xe000;" horiz-adv-x="0" 
 />
    <glyph glyph-name="apple" unicode="&#xf8ff;" 
d="M268 305h-96l49 164zM245 539h-40q-12 0 -18 -16l-99 -327q-5 -16 3 -16h35q7 0 9 2t4 11l22 75h119l23 -75q2 -12 5 -12q3 -1 6 -1h39q8 0 10 2t0 14l-100 327q-4 16 -18 16zM591 539q-8 0 -11 -13l-82 -276l-83 276q-7 12 -12 13h-38q-13 0 -12 -5t2 -11l101 -331
q3 -12 15 -12h45q11 0 14 11l103 337q4 11 -11 11h-31zM719 72h-711v564h711v-564z" />
    <glyph glyph-name="fl" unicode="&#xfb02;" horiz-adv-x="587" 
d="M411 716q0 27 24 27h63q17 1 20 -5t3 -25v-678q0 -26 -5 -31q-5 -4 -14 -4h-66q-16 0 -20 6t-5 27v683zM63 446q-22 0 -22 21v34q0 21 16 21h50q-19 40 -19 93t32 91t92 37q60 0 95 -13q7 -3 1 -40t-14 -36q-28 7 -48 7t-34 -16t-15 -53q0 -37 28 -69h67q15 -1 19 -5
t4 -15v-35q0 -22 -23 -22h-65v-413q0 -33 -23 -33h-61q-28 0 -28 26v420h-52z" />
    <glyph glyph-name="f_f_l" unicode="&#xfb04;" horiz-adv-x="883" 
d="M706 716q0 27 24 27h63q17 1 21 -5t3 -25v-678q1 -25 -5 -30t-15 -5h-66q-17 0 -21 6t-4 27v683zM63 446q-22 0 -22 21v34q0 21 16 21h50q-19 40 -19 93t32 91t92 37q60 0 95 -13q7 -3 1 -40t-14 -36q-28 7 -48 7t-34 -16t-15 -53q0 -37 28 -69h178q-19 41 -19 93t32 90
t92 37q60 0 95 -13q7 -3 1 -40t-14 -36q-28 7 -48 7t-34 -16t-15 -53q0 -37 28 -69h67q15 -1 19 -5t4 -15v-35q0 -22 -23 -22h-65v-413q0 -33 -23 -33h-61q-28 0 -28 26v420h-184v-413q0 -33 -23 -33h-61q-28 0 -28 26v420h-52z" />
    <glyph glyph-name="zero.tab" horiz-adv-x="613" 
d="M430 233v248q0 89 -28 126t-92 37t-94 -36t-30 -133v-260q0 -65 37 -98t92 -33t85 33t30 116zM65 209v286q0 135 66 191t183 57q234 0 234 -236v-276q-4 -152 -70 -198t-139 -46q-123 0 -199 47q-75 48 -75 175z" />
    <glyph glyph-name="one.tab" horiz-adv-x="613" 
d="M364 732q20 0 20 -18v-600q0 -19 15 -19h88q11 1 15 -3t4 -17v-58q0 -17 -17 -17h-335q-23 0 -23 19v59q0 17 22 17h92q18 0 18 18v470q1 13 -3 17t-16 4h-87q-18 0 -22 19v43q0 17 34 27l62 22q8 1 30 9t33 8h70z" />
    <glyph glyph-name="two.tab" horiz-adv-x="613" 
d="M503 100q31 0 31 -18v-65q0 -17 -17 -17h-436q-20 0 -20 24v48q0 108 58 186q57 78 135 125q78 46 121 84t43 78q0 103 -133 103q-44 0 -68 -8q-25 -8 -33 -12q-8 -2 -18 -8l-16 -8t-14 -9q-10 -6 -12 -7q-8 -5 -20 18q-12 22 -14 46q-3 24 4 32q95 51 207 51
q233 0 233 -182q0 -87 -64 -145t-150 -108q-124 -75 -129 -186q0 -22 29 -22h283z" />
    <glyph glyph-name="three.tab" horiz-adv-x="613" 
d="M408 536q0 114 -149 114q-73 0 -135 -46q-8 -4 -17 16q-23 52 -9 72q64 51 180 51t180 -49t63 -129q-1 -79 -45 -131t-106 -67q151 -45 151 -194q1 -83 -65 -135t-148 -52q-149 0 -229 48q-13 6 1 50t25 42q91 -42 161 -42t107 30t37 86q0 54 -49 88t-95 36t-48 8t-2 12
v44q0 16 10 18t22 3q72 5 116 39t44 88z" />
    <glyph glyph-name="four.tab" horiz-adv-x="613" 
d="M370 233v336l-214 -336h214zM537 233q15 0 15 -18v-47q0 -25 -17 -25h-61v-126q0 -17 -20 -17h-58q-14 0 -20 4t-6 16v123h-304q-21 0 -21 16v47q0 21 10 38l292 455q19 33 35 33h75q17 0 17 -14v-485h63z" />
    <glyph glyph-name="five.tab" horiz-adv-x="613" 
d="M517 650q0 -18 -32 -18h-236q-16 0 -22 -4t-6 -18v-118q0 -14 23 -18q287 -41 287 -262q0 -96 -67 -160q-66 -64 -188 -64t-196 51q-5 8 -3 31q1 24 13 46t23 16q90 -45 159 -45q70 0 104 36t34 90q0 152 -259 176q-38 4 -38 46v273q0 24 21 24h365q18 0 18 -17v-65z" />
    <glyph glyph-name="six.tab" horiz-adv-x="613" 
d="M436 245q0 150 -107 150q-79 0 -129 -43q-14 -13 -14 -26v-112q0 -128 130 -128q60 0 90 36t30 123zM557 244q0 -258 -231 -257q-119 0 -190 51t-71 152v302q0 133 63 192t201 59q33 0 87 -10t68 -16q12 -5 14 -17q3 -20 -8 -56q-10 -35 -21 -31q-93 31 -140 31
q-93 0 -118 -41t-25 -110v-29q0 -24 14 -13q62 42 148 42q86 1 147 -61q62 -62 62 -188z" />
    <glyph glyph-name="seven.tab" horiz-adv-x="613" 
d="M305 0h-77q-16 0 -22 4t0 20l195 583q6 23 -23 23h-281q-19 0 -19 21v57q0 14 4 19t17 5h422q41 0 30 -35l-222 -671q-8 -26 -24 -26z" />
    <glyph glyph-name="eight.tab" horiz-adv-x="613" 
d="M440 198q0 56 -36 92t-102 37q-66 -1 -98 -37t-33 -92q0 -56 37 -84q37 -30 100 -30q64 0 98 30q34 28 34 84zM431 525q-1 56 -35 89t-92 33q-58 1 -92 -33q-32 -34 -32 -90t34 -84q34 -29 90 -29t92 29q35 29 35 85zM559 166q1 -78 -69 -129q-70 -50 -188 -50t-184 51
q-64 51 -64 130q0 80 34 130t73 65q-37 19 -67 65t-29 103q0 91 64 151t177 61q113 0 177 -59t64 -136q1 -76 -35 -124t-76 -61q123 -43 123 -197z" />
    <glyph glyph-name="nine.tab" horiz-adv-x="613" 
d="M424 404v112q0 128 -130 128q-60 0 -90 -36t-30 -123q0 -150 107 -150q79 0 129 43q14 13 14 26zM53 486q0 258 231 257q119 0 190 -51t71 -152v-302q0 -133 -63 -192t-201 -59q-35 1 -104 11t-81 16t-14 16q-3 20 8 56q10 35 21 31q93 -31 155 -31q108 0 133 41t25 110
v29q0 24 -14 13q-62 -42 -148 -42q-86 -1 -147 61q-62 62 -62 188z" />
    <glyph glyph-name="a.salt_ts" horiz-adv-x="561" 
d="M353 165v100q-110 0 -153 -27t-43 -95t66 -68q54 0 92 32t38 58zM365 71q-64 -82 -177 -82q-54 0 -99 34t-45 105q0 70 25 112q55 92 284 92q0 76 -26 107t-94 31t-131 -36q-8 -4 -16 14q-22 47 0 68q64 36 170 36q210 0 210 -196v-215q0 -41 7 -55t27 -13q20 0 20 -15
l1 -47q0 -17 -16 -17q-61 0 -93 16t-47 61z" />
    <glyph glyph-name="aacute.salt_ts" horiz-adv-x="561" 
d="M353 165v100q-110 0 -153 -27t-43 -95t66 -68q54 0 92 32t38 58zM365 71q-64 -82 -177 -82q-54 0 -99 34t-45 105q0 70 25 112q55 92 284 92q0 76 -26 107t-94 31t-131 -36q-8 -4 -16 14q-22 47 0 68q64 36 170 36q210 0 210 -196v-215q0 -41 7 -55t27 -13q20 0 20 -15
l1 -47q0 -17 -16 -17q-61 0 -93 16t-47 61zM268 597h-39q-23 0 -6 26l92 128q4 4 5 7q0 2 2 4t3 2t3 2q6 6 11 6h76q14 0 21 -4t-12 -24l-124 -129q-16 -18 -32 -18z" />
    <glyph glyph-name="agrave.salt_ts" horiz-adv-x="561" 
d="M353 165v100q-110 0 -153 -27t-43 -95t66 -68q54 0 92 32t38 58zM365 71q-64 -82 -177 -82q-54 0 -99 34t-45 105q0 70 25 112q55 92 284 92q0 76 -26 107t-94 31t-131 -36q-8 -4 -16 14q-22 47 0 68q64 36 170 36q210 0 210 -196v-215q0 -41 7 -55t27 -13q20 0 20 -15
l1 -47q0 -17 -16 -17q-61 0 -93 16t-47 61zM349 597h-39q-16 0 -32 18l-124 129q-28 28 8 28h70q14 0 19 -6t12 -15l91 -128q19 -26 -5 -26z" />
    <glyph glyph-name="acircumflex.salt_ts" horiz-adv-x="561" 
d="M353 165v100q-110 0 -153 -27t-43 -95t66 -68q54 0 92 32t38 58zM365 71q-64 -82 -177 -82q-54 0 -99 34t-45 105q0 70 25 112q55 92 284 92q0 76 -26 107t-94 31t-131 -36q-8 -4 -16 14q-22 47 0 68q64 36 170 36q210 0 210 -196v-215q0 -41 7 -55t27 -13q20 0 20 -15
l1 -47q0 -17 -16 -17q-61 0 -93 16t-47 61zM402 597h-37q-17 0 -26 12l-71 94l-71 -94q-10 -12 -26 -12h-38q-25 0 -5 26l91 128q15 21 28 21h40q20 0 30 -21l91 -128q20 -26 -6 -26z" />
    <glyph glyph-name="adieresis.salt_ts" horiz-adv-x="561" 
d="M353 165v100q-110 0 -153 -27t-43 -95t66 -68q54 0 92 32t38 58zM365 71q-64 -82 -177 -82q-54 0 -99 34t-45 105q0 70 25 112q55 92 284 92q0 76 -26 107t-94 31t-131 -36q-8 -4 -16 14q-22 47 0 68q64 36 170 36q210 0 210 -196v-215q0 -41 7 -55t27 -13q20 0 20 -15
l1 -47q0 -17 -16 -17q-61 0 -93 16t-47 61zM218 652q0 -25 -23 -25h-62q-17 0 -22 4t-5 16v64q0 28 22 28h64q26 0 26 -28v-59zM353 627q-32 0 -32 28v59q0 25 22 25h62q18 -1 23 -5t5 -18v-62q0 -27 -22 -27h-58z" />
    <glyph glyph-name="atilde.salt_ts" horiz-adv-x="561" 
d="M353 165v100q-110 0 -153 -27t-43 -95t66 -68q54 0 92 32t38 58zM365 71q-64 -82 -177 -82q-54 0 -99 34t-45 105q0 70 25 112q55 92 284 92q0 76 -26 107t-94 31t-131 -36q-8 -4 -16 14q-22 47 0 68q64 36 170 36q210 0 210 -196v-215q0 -41 7 -55t27 -13q20 0 20 -15
l1 -47q0 -17 -16 -17q-61 0 -93 16t-47 61zM332 618q-24 0 -68 28t-71 27q-26 0 -48 -38q-6 -11 -15 -6l-37 19q-9 4 1 26t40 52t58 30q30 0 78 -28t74 -29q26 0 49 41q5 11 14 6l40 -13q9 -4 4 -15q-50 -100 -119 -100z" />
    <glyph glyph-name="aring.salt_ts" horiz-adv-x="561" 
d="M353 165v100q-110 0 -153 -27t-43 -95t66 -68q54 0 92 32t38 58zM365 71q-64 -82 -177 -82q-54 0 -99 34t-45 105q0 70 25 112q55 92 284 92q0 76 -26 107t-94 31t-131 -36q-8 -4 -16 14q-22 47 0 68q64 36 170 36q210 0 210 -196v-215q0 -41 7 -55t27 -13q20 0 20 -15
l1 -47q0 -17 -16 -17q-61 0 -93 16t-47 61zM328 708q0 25 -18 45t-44 20t-43 -20q-18 -20 -18 -45q-1 -25 17 -45t44 -20t44 20t18 45zM386 708q0 -48 -36 -82t-84 -34t-84 34t-35 82q-1 48 35 82t84 34t84 -34t36 -82z" />
    <glyph glyph-name="ae.salt_ts" horiz-adv-x="851" 
d="M157 143q0 -68 66 -68q53 0 89 30t44 62l-3 98q-110 0 -153 -27t-43 -95zM679 312q11 0 11 19q-2 75 -28 112t-84 37t-86 -42t-28 -106q0 -20 13 -20h202zM799 279q1 -23 -7 -33t-34 -10h-297q0 -163 151 -163q82 0 148 22q28 11 28 -9v-50q0 -12 -6 -18
q-34 -29 -175 -29q-173 0 -224 106q-75 -106 -193 -106q-56 0 -101 34t-45 105q0 70 25 112q55 92 284 92q0 76 -26 107t-94 31t-131 -36q-8 -4 -16 14q-22 47 0 68q64 36 158 36q135 0 174 -65q61 65 163 65t160 -56t58 -155v-62z" />
    <glyph glyph-name="g.salt_ts" horiz-adv-x="573" 
d="M280 -136q135 0 135 81q1 81 -131 81t-132 -83q0 -35 32 -57t96 -22zM373 377q0 105 -101 105q-52 0 -78 -26t-26 -73q0 -111 105 -111q50 0 75 28t25 77zM534 -56q0 -72 -68 -114t-190 -41q-121 -1 -180 45t-59 109q0 33 24 69t80 59q-65 28 -65 76t69 81
q-92 43 -92 148q0 78 58 126t164 47q106 0 158 -47q42 75 115 75q8 1 10 -25t0 -52q-4 -26 -11 -25q-40 0 -77 -29q12 -34 12 -90t-50 -104t-160 -48q-31 0 -45 2q-35 -12 -37 -46t42 -52q24 -10 57 -11h10q235 0 235 -153z" />
    <glyph glyph-name="W.salt_ht" horiz-adv-x="928" 
d="M606 0q-25 0 -31 24l-116 485l-104 -487q-5 -22 -29 -22h-92q-25 0 -31 24l-166 675q-10 28 6 32q4 1 14 1h78q13 0 17 -4t9 -22l128 -550l116 550q5 24 19 26h79q13 0 17 -4t9 -22l129 -550l127 550q4 18 8 22t14 4h64q15 0 20 -4t2 -17l-169 -689q-5 -22 -29 -22h-89z
" />
    <glyph glyph-name="w.salt_ht" horiz-adv-x="745" 
d="M569 0h-66q-28 0 -35 28l-104 365l-94 -363q-8 -30 -35 -30h-68q-28 0 -35 28l-112 488q-2 14 2 18t18 4h62q21 0 27 -24l80 -381l98 381q9 24 26 24h73q20 0 27 -24l112 -379l78 379q5 24 26 24h57q15 0 19 -6t0 -20l-121 -482q-8 -30 -35 -30z" />
    <glyph glyph-name="M.salt_ht" horiz-adv-x="840" 
d="M80 700q0 32 25 32h98q27 0 33 -19l175 -536q7 -11 14 -1l180 535q12 21 32 21h101q15 0 18 -6t3 -28v-671q-1 -15 -5 -21t-18 -6h-67q-19 0 -25 6t-7 27v459q1 22 -5 16t-9 -15l-154 -466q-8 -27 -26 -27h-50q-23 0 -30 28l-146 460q-7 22 -13 10q-2 -4 -3 -12v-460
q-1 -14 -5 -20t-19 -6h-65q-20 0 -26 9t-6 24v667z" />
    <glyph glyph-name="Q.salt_tail" horiz-adv-x="691" 
d="M496 242v246q0 157 -146 157q-86 1 -122 -39t-36 -122v-261q0 -69 46 -103t92 -34t58 2l-36 57q-17 22 1 35l35 23q14 9 28 -9l51 -64q29 39 29 112zM359 -13q-285 0 -285 210v295q0 133 66 192t205 59q272 0 272 -248v-267q0 -130 -75 -191l63 -77q9 -10 8 -16t-13 -15
l-57 -43q-13 -13 -27 3l-68 107q-42 -9 -89 -9z" />
    <glyph glyph-name="ampersand.salt_loop" horiz-adv-x="656" 
d="M394 566q0 42 -22 66t-56 23q-34 0 -59 -30t-25 -90t27 -117q67 40 101 74q34 32 34 74zM143 192q0 -110 126 -109q60 0 113 45q-101 91 -163 173q-76 -55 -76 -109zM255 -9q-108 0 -164 48q-56 47 -56 121q1 74 37 120t102 88q-51 86 -51 172t57 145q58 58 136 58
t130 -48t52 -97t-13 -80q-24 -57 -71 -93t-115 -74q54 -71 145 -146q36 65 52 161q4 9 26 7t45 -14t21 -21q-22 -109 -73 -189q40 -31 74 -53q35 -22 37 -30t-5 -19l-36 -50q-14 -22 -52 6q-39 29 -84 66q-86 -78 -194 -78z" />
    <glyph glyph-name="A.unic" horiz-adv-x="650" 
d="M54 192q0 242 392 242v61q0 154 -152 154q-100 0 -182 -47q-8 -4 -20 17q-29 53 -6 76q83 47 216 47q132 0 200 -64t68 -182v-468q0 -28 -16 -28h-78q-22 0 -21 29v52q-73 -92 -207 -92q-90 0 -142 50t-52 153zM446 264v87q-202 0 -251 -79q-21 -34 -21 -84t31 -78
t88 -28t105 48t48 134z" />
    <glyph glyph-name="E.unic" horiz-adv-x="665" 
d="M192 480v-51h273v50q0 166 -128 166q-145 0 -145 -165zM544 334h-352v-114q0 -74 52 -106t129 -31q77 -1 165 41q10 4 12 6t8 -7q4 -9 8 -23t6 -28t3 -24q0 -10 -2 -14q-23 -16 -86 -32t-126 -15q-135 -1 -211 59t-76 163v281q0 253 267 253q244 0 244 -243v-123
q1 -23 -7 -33t-34 -10z" />
    <glyph glyph-name="M.unic" horiz-adv-x="987" 
d="M101 0q-21 0 -21 37v671q0 24 17 24h92q13 0 13 -26v-69q22 43 72 75t107 32q124 0 161 -110q30 50 82 80t107 30q176 0 176 -212v-500q1 -20 -3 -26t-19 -6h-75q-24 0 -24 29v462q0 67 -22 105t-79 39q-56 -1 -92 -39t-36 -100v-464q1 -20 -3 -26t-19 -6h-75
q-24 0 -24 29v462q0 67 -22 105t-84 39t-96 -45t-33 -104v-454q0 -20 -6 -26t-24 -6h-70z" />
    <glyph glyph-name="N.unic" horiz-adv-x="697" 
d="M101 0q-21 0 -21 37v671q0 24 17 24h92q13 0 13 -26v-72q22 46 80 78t140 32t139 -58q56 -58 56 -154v-500q1 -20 -3 -26t-19 -6h-75q-24 0 -24 29v462q0 61 -36 102t-100 41t-112 -47t-47 -101v-454q0 -20 -6 -26t-24 -6h-70z" />
    <glyph glyph-name="U.unic" horiz-adv-x="697" 
d="M596 732q21 0 21 -37v-671q0 -24 -17 -24h-92q-13 0 -13 26v72q-23 -46 -81 -78t-140 -32t-138 60t-56 168v484q0 20 4 26t18 6h75q24 0 24 -29v-462q1 -63 33 -103t100 -40t116 50q46 50 46 114v438q0 20 6 26t24 6h70z" />
    <glyph glyph-name="Aacute.unic" horiz-adv-x="650" 
d="M54 192q0 242 392 242v61q0 154 -152 154q-100 0 -182 -47q-8 -4 -20 17q-29 53 -6 76q83 47 216 47q132 0 200 -64t68 -182v-468q0 -28 -16 -28h-78q-22 0 -21 29v52q-73 -92 -207 -92q-90 0 -142 50t-52 153zM446 264v87q-202 0 -251 -79q-21 -34 -21 -84t31 -78
t88 -28t105 48t48 134zM321 777h-39q-23 0 -6 26l92 128q4 4 5 7q1 2 3 4l2 2l2 2q6 6 12 6h76q14 0 21 -4t-12 -24l-124 -129q-16 -18 -32 -18z" />
    <glyph glyph-name="Agrave.unic" horiz-adv-x="650" 
d="M54 192q0 242 392 242v61q0 154 -152 154q-100 0 -182 -47q-8 -4 -20 17q-29 53 -6 76q83 47 216 47q132 0 200 -64t68 -182v-468q0 -28 -16 -28h-78q-22 0 -21 29v52q-73 -92 -207 -92q-90 0 -142 50t-52 153zM446 264v87q-202 0 -251 -79q-21 -34 -21 -84t31 -78
t88 -28t105 48t48 134zM369 777h-39q-16 0 -32 18l-124 129q-28 28 8 28h70q14 0 19 -6t12 -15l91 -128q19 -26 -5 -26z" />
    <glyph glyph-name="Acircumflex.unic" horiz-adv-x="650" 
d="M54 192q0 242 392 242v61q0 154 -152 154q-100 0 -182 -47q-8 -4 -20 17q-29 53 -6 76q83 47 216 47q132 0 200 -64t68 -182v-468q0 -28 -16 -28h-78q-22 0 -21 29v52q-73 -92 -207 -92q-90 0 -142 50t-52 153zM446 264v87q-202 0 -251 -79q-21 -34 -21 -84t31 -78
t88 -28t105 48t48 134zM450 777h-37q-17 0 -26 12l-71 94l-71 -94q-10 -12 -26 -12h-38q-25 0 -5 26l91 128q15 21 28 21h40q20 0 30 -21l91 -128q20 -26 -6 -26z" />
    <glyph glyph-name="Adieresis.unic" horiz-adv-x="650" 
d="M54 192q0 242 392 242v61q0 154 -152 154q-100 0 -182 -47q-8 -4 -20 17q-29 53 -6 76q83 47 216 47q132 0 200 -64t68 -182v-468q0 -28 -16 -28h-78q-22 0 -21 29v52q-73 -92 -207 -92q-90 0 -142 50t-52 153zM446 264v87q-202 0 -251 -79q-21 -34 -21 -84t31 -78
t88 -28t105 48t48 134zM259 832q0 -25 -23 -25h-62q-17 0 -22 4t-5 16v64q0 28 22 28h64q26 0 26 -28v-59zM394 807q-32 0 -32 28v59q0 25 22 25h62q18 -1 23 -5t5 -18v-62q0 -27 -22 -27h-58z" />
    <glyph glyph-name="Atilde.unic" horiz-adv-x="650" 
d="M54 192q0 242 392 242v61q0 154 -152 154q-100 0 -182 -47q-8 -4 -20 17q-29 53 -6 76q83 47 216 47q132 0 200 -64t68 -182v-468q0 -28 -16 -28h-78q-22 0 -21 29v52q-73 -92 -207 -92q-90 0 -142 50t-52 153zM446 264v87q-202 0 -251 -79q-21 -34 -21 -84t31 -78
t88 -28t105 48t48 134zM380 798q-24 0 -68 28t-71 27q-26 0 -48 -38q-6 -11 -15 -6l-37 19q-9 4 1 26t40 52t58 30q30 0 78 -28t74 -29q26 0 49 41q5 11 14 6l40 -13q9 -4 4 -15q-50 -100 -119 -100z" />
    <glyph glyph-name="Aring.unic" horiz-adv-x="650" 
d="M54 192q0 242 392 242v61q0 154 -152 154q-100 0 -182 -47q-8 -4 -20 17q-29 53 -6 76q83 47 216 47q132 0 200 -64t68 -182v-468q0 -28 -16 -28h-78q-22 0 -21 29v52q-73 -92 -207 -92q-90 0 -142 50t-52 153zM446 264v87q-202 0 -251 -79q-21 -34 -21 -84t31 -78
t88 -28t105 48t48 134zM380 888q0 25 -18 45t-44 20t-43 -20q-18 -20 -18 -45q-1 -25 17 -45t44 -20t44 20t18 45zM438 888q0 -48 -36 -82t-84 -34t-84 34t-35 82q-1 48 35 82t84 34t84 -34t36 -82z" />
    <glyph glyph-name="AE.unic" horiz-adv-x="1040" 
d="M567 480v-51h273v50q0 166 -128 166q-145 0 -145 -165zM174 188q0 -50 31 -78t83 -28t100 37q46 37 61 82l-3 150q-202 0 -251 -79q-21 -34 -21 -84zM919 334h-352v-114q0 -74 52 -106t129 -31q78 -1 166 41q10 4 12 6t7 -7t9 -23t6 -28t2 -24t-2 -14q-23 -16 -86 -32
q-62 -16 -136 -15q-74 0 -145 29t-103 86q-93 -113 -230 -113q-90 0 -142 50t-52 153q0 242 392 242v61q0 154 -152 154q-100 0 -182 -47q-8 -4 -20 17q-29 53 -6 76q83 47 222 47t200 -73q67 74 208 74q244 0 244 -243v-123q0 -23 -8 -33t-33 -10z" />
    <glyph glyph-name="Eacute.unic" horiz-adv-x="665" 
d="M192 480v-51h273v50q0 166 -128 166q-145 0 -145 -165zM544 334h-352v-114q0 -74 52 -106t129 -31q77 -1 165 41q10 4 12 6t8 -7q4 -9 8 -23t6 -28t3 -24q0 -10 -2 -14q-23 -16 -86 -32t-126 -15q-135 -1 -211 59t-76 163v281q0 253 267 253q244 0 244 -243v-123
q1 -23 -7 -33t-34 -10zM311 777h-39q-23 0 -6 26l92 128q4 4 5 7q1 2 3 4l2 2l2 2q5 5 12 6h76q14 0 21 -4t-12 -24l-124 -129q-16 -18 -32 -18z" />
    <glyph glyph-name="Egrave.unic" horiz-adv-x="665" 
d="M192 480v-51h273v50q0 166 -128 166q-145 0 -145 -165zM544 334h-352v-114q0 -74 52 -106t129 -31q77 -1 165 41q10 4 12 6t8 -7q4 -9 8 -23t6 -28t3 -24q0 -10 -2 -14q-23 -16 -86 -32t-126 -15q-135 -1 -211 59t-76 163v281q0 253 267 253q244 0 244 -243v-123
q1 -23 -7 -33t-34 -10zM399 777h-39q-16 0 -32 18l-124 129q-28 28 8 28h70q14 0 19 -6t12 -15l91 -128q19 -26 -5 -26z" />
    <glyph glyph-name="Ecircumflex.unic" horiz-adv-x="665" 
d="M192 480v-51h273v50q0 166 -128 166q-145 0 -145 -165zM544 334h-352v-114q0 -74 52 -106t129 -31q77 -1 165 41q10 4 12 6t8 -7q4 -9 8 -23t6 -28t3 -24q0 -10 -2 -14q-23 -16 -86 -32t-126 -15q-135 -1 -211 59t-76 163v281q0 253 267 253q244 0 244 -243v-123
q1 -23 -7 -33t-34 -10zM476 777h-37q-17 0 -26 12l-71 94l-71 -94q-10 -12 -26 -12h-38q-25 0 -5 26l91 128q15 21 28 21h40q20 0 30 -21l91 -128q19 -26 -6 -26z" />
    <glyph glyph-name="Edieresis.unic" horiz-adv-x="665" 
d="M192 480v-51h273v50q0 166 -128 166q-145 0 -145 -165zM544 334h-352v-114q0 -74 52 -106t129 -31q77 -1 165 41q10 4 12 6t8 -7q4 -9 8 -23t6 -28t3 -24q0 -10 -2 -14q-23 -16 -86 -32t-126 -15q-135 -1 -211 59t-76 163v281q0 253 267 253q244 0 244 -243v-123
q1 -23 -7 -33t-34 -10zM283 832q0 -25 -23 -25h-62q-17 0 -22 4t-5 16v64q0 28 22 28h64q26 0 26 -28v-59zM418 807q-32 0 -32 28v59q0 25 22 25h62q18 -1 23 -5t5 -18v-62q0 -27 -22 -27h-58z" />
    <glyph glyph-name="Ntilde.unic" horiz-adv-x="697" 
d="M101 0q-21 0 -21 37v671q0 24 17 24h92q13 0 13 -26v-72q22 46 80 78t140 32t139 -58q56 -58 56 -154v-500q1 -20 -3 -26t-19 -6h-75q-24 0 -24 29v462q0 61 -36 102t-100 41t-112 -47t-47 -101v-454q0 -20 -6 -26t-24 -6h-70zM421 798q-25 0 -69 28t-70 27
q-26 0 -48 -38q-6 -11 -15 -6l-37 19q-8 4 2 26t38 52q30 30 60 30t76 -28q48 -28 74 -29q26 0 50 41q5 11 14 6l40 -13q9 -4 4 -15q-50 -100 -119 -100z" />
    <glyph glyph-name="OE.unic" horiz-adv-x="1085" 
d="M612 480v-51h273v50q0 166 -128 166q-145 0 -145 -165zM496 242v246q0 157 -146 157q-86 1 -122 -39t-36 -122v-261q0 -69 46 -103t113 -34t106 33t39 123zM964 334h-352v-114q0 -74 52 -106t129 -31q77 -1 165 41q10 4 12 6t8 -7q4 -9 8 -23t6 -28t3 -24q0 -10 -2 -14
q-23 -16 -86 -32t-126 -15q-156 0 -225 81q-58 -81 -208 -81q-198 0 -254 116q-20 40 -20 94v295q0 133 66 192t208 59q144 0 206 -84q61 84 207 84q244 0 244 -243v-123q1 -23 -7 -33t-34 -10z" />
    <glyph glyph-name="Uacute.unic" horiz-adv-x="697" 
d="M596 732q21 0 21 -37v-671q0 -24 -17 -24h-92q-13 0 -13 26v72q-23 -46 -81 -78t-140 -32t-138 60t-56 168v484q0 20 4 26t18 6h75q24 0 24 -29v-462q1 -63 33 -103t100 -40t116 50q46 50 46 114v438q0 20 6 26t24 6h70zM341 777h-39q-23 0 -6 26l92 128q4 4 5 7q1 2 3 4
l2 2l2 2q6 6 12 6h76q14 0 21 -4t-12 -24l-124 -129q-16 -18 -32 -18z" />
    <glyph glyph-name="Ugrave.unic" horiz-adv-x="697" 
d="M596 732q21 0 21 -37v-671q0 -24 -17 -24h-92q-13 0 -13 26v72q-23 -46 -81 -78t-140 -32t-138 60t-56 168v484q0 20 4 26t18 6h75q24 0 24 -29v-462q1 -63 33 -103t100 -40t116 50q46 50 46 114v438q0 20 6 26t24 6h70zM419 777h-39q-16 0 -32 18l-124 129q-28 28 8 28
h70q14 0 19 -6t12 -15l91 -128q19 -26 -5 -26z" />
    <glyph glyph-name="Ucircumflex.unic" horiz-adv-x="697" 
d="M596 732q21 0 21 -37v-671q0 -24 -17 -24h-92q-13 0 -13 26v72q-23 -46 -81 -78t-140 -32t-138 60t-56 168v484q0 20 4 26t18 6h75q24 0 24 -29v-462q1 -63 33 -103t100 -40t116 50q46 50 46 114v438q0 20 6 26t24 6h70zM481 777h-37q-17 0 -26 12l-71 94l-71 -94
q-10 -12 -26 -12h-38q-24 0 -5 26l91 128q15 21 28 21h40q20 0 30 -21l91 -128q19 -26 -6 -26z" />
    <glyph glyph-name="Udieresis.unic" horiz-adv-x="697" 
d="M596 732q21 0 21 -37v-671q0 -24 -17 -24h-92q-13 0 -13 26v72q-23 -46 -81 -78t-140 -32t-138 60t-56 168v484q0 20 4 26t18 6h75q24 0 24 -29v-462q1 -63 33 -103t100 -40t116 50q46 50 46 114v438q0 20 6 26t24 6h70zM296 832q0 -25 -23 -25h-62q-17 0 -22 4t-5 16v64
q0 28 22 28h64q26 0 26 -28v-59zM431 807q-32 0 -32 28v59q0 25 22 25h62q18 -1 23 -5t5 -18v-62q0 -27 -22 -27h-58z" />
    </font>
</defs>
</svg>
